<mxfile host="app.diagrams.net" modified="2023-08-14T15:48:33.727Z" agent="Mozilla/5.0 (Windows NT 10.0; Win64; x64) AppleWebKit/537.36 (KHTML, like Gecko) Chrome/115.0.0.0 Safari/537.36" etag="plNkHrUA5AtaEfxX07EQ" version="21.3.8" type="github">
  <diagram name="Page-1" id="7a6c530e-6e37-e111-ec74-82921da8cc10">
    <mxGraphModel dx="2440" dy="1306" grid="1" gridSize="10" guides="1" tooltips="1" connect="1" arrows="1" fold="1" page="1" pageScale="1.5" pageWidth="1169" pageHeight="826" background="none" math="0" shadow="0">
      <root>
        <mxCell id="0" style=";html=1;" />
        <mxCell id="1" style=";html=1;" parent="0" />
        <mxCell id="lDHJfgaJlsZgmha4-692-224" value="" style="rounded=1;whiteSpace=wrap;html=1;dashed=1;dashPattern=12 12;" vertex="1" parent="1">
          <mxGeometry x="1030" y="3220" width="670" height="130" as="geometry" />
        </mxCell>
        <mxCell id="lDHJfgaJlsZgmha4-692-222" value="" style="rounded=1;whiteSpace=wrap;html=1;dashed=1;dashPattern=12 12;" vertex="1" parent="1">
          <mxGeometry x="1030" y="2740" width="670" height="410" as="geometry" />
        </mxCell>
        <mxCell id="23046e2b9bb16c14-116" value="Azure Group" style="whiteSpace=wrap;html=1;rounded=1;shadow=0;strokeColor=none;strokeWidth=2;fillColor=#009BFF;fontSize=20;fontColor=#FFFFFF;align=center;arcSize=3;verticalAlign=top;spacingTop=4;" parent="1" vertex="1">
          <mxGeometry x="287" y="217" width="1180" height="550" as="geometry" />
        </mxCell>
        <mxCell id="23046e2b9bb16c14-64" value="Web role instances" style="rounded=1;whiteSpace=wrap;html=1;shadow=0;strokeWidth=2;fillColor=#0072BC;fontSize=12;fontColor=#FFFFFF;align=center;strokeColor=none;arcSize=3;verticalAlign=top;" parent="1" vertex="1">
          <mxGeometry x="1286" y="291" width="150" height="420" as="geometry" />
        </mxCell>
        <mxCell id="23046e2b9bb16c14-27" value="" style="rounded=1;whiteSpace=wrap;html=1;shadow=0;strokeWidth=2;fillColor=#8BC63E;fontSize=12;fontColor=#000000;align=center;strokeColor=none;arcSize=3;" parent="1" vertex="1">
          <mxGeometry x="726" y="291" width="530" height="420" as="geometry" />
        </mxCell>
        <mxCell id="23046e2b9bb16c14-2" value="" style="rounded=1;whiteSpace=wrap;html=1;shadow=0;strokeWidth=2;fillColor=none;fontSize=12;fontColor=#000000;align=center;strokeColor=#FFFFFF;arcSize=10;" parent="1" vertex="1">
          <mxGeometry x="876" y="420" width="160" height="241" as="geometry" />
        </mxCell>
        <mxCell id="23046e2b9bb16c14-54" value="Availability set" style="rounded=1;whiteSpace=wrap;html=1;shadow=0;strokeWidth=2;fillColor=none;fontSize=11;fontColor=#FFFFFF;align=center;strokeColor=#FFFFFF;dashed=1;verticalAlign=top;" parent="1" vertex="1">
          <mxGeometry x="956" y="441" width="70" height="211" as="geometry" />
        </mxCell>
        <mxCell id="23046e2b9bb16c14-28" value="On-premises networks" style="rounded=1;whiteSpace=wrap;html=1;shadow=0;strokeWidth=2;fillColor=#F04D22;fontSize=12;fontColor=#FFFFFF;align=center;strokeColor=none;arcSize=6;verticalAlign=top;" parent="1" vertex="1">
          <mxGeometry x="466" y="378" width="230" height="330" as="geometry" />
        </mxCell>
        <mxCell id="23046e2b9bb16c14-49" value="" style="rounded=1;whiteSpace=wrap;html=1;shadow=0;strokeWidth=2;fillColor=none;fontSize=12;fontColor=#000000;align=center;strokeColor=#FFFFFF;" parent="1" vertex="1">
          <mxGeometry x="486" y="410" width="80" height="218" as="geometry" />
        </mxCell>
        <mxCell id="23046e2b9bb16c14-1" value="" style="rounded=1;whiteSpace=wrap;html=1;shadow=0;strokeWidth=2;fillColor=none;fontSize=12;fontColor=#000000;align=center;strokeColor=#FFFFFF;" parent="1" vertex="1">
          <mxGeometry x="746" y="420" width="110" height="221" as="geometry" />
        </mxCell>
        <mxCell id="24964f25f45c63f1-1" value="" style="verticalLabelPosition=bottom;html=1;verticalAlign=top;strokeColor=none;fillColor=#FFFFFF;shape=mxgraph.azure.computer;rounded=0;shadow=0;fontSize=12;fontColor=#000000;align=center;" parent="1" vertex="1">
          <mxGeometry x="501" y="424" width="50" height="45" as="geometry" />
        </mxCell>
        <mxCell id="24964f25f45c63f1-2" value="" style="verticalLabelPosition=bottom;html=1;verticalAlign=top;strokeColor=none;fillColor=#FFFFFF;shape=mxgraph.azure.computer;rounded=0;shadow=0;fontSize=12;fontColor=#000000;align=center;" parent="1" vertex="1">
          <mxGeometry x="501" y="494" width="50" height="45" as="geometry" />
        </mxCell>
        <mxCell id="24964f25f45c63f1-3" value="" style="verticalLabelPosition=bottom;html=1;verticalAlign=top;strokeColor=none;fillColor=#FFFFFF;shape=mxgraph.azure.computer;rounded=0;shadow=0;fontSize=12;fontColor=#000000;align=center;" parent="1" vertex="1">
          <mxGeometry x="501" y="564" width="50" height="45" as="geometry" />
        </mxCell>
        <mxCell id="23046e2b9bb16c14-73" style="html=1;startArrow=none;startFill=0;startSize=10;endArrow=none;endFill=0;endSize=10;strokeWidth=3;fontSize=11;fontColor=#FFFFFF;strokeColor=#FFFFFF;rounded=0;" parent="1" source="24964f25f45c63f1-5" target="23046e2b9bb16c14-7" edge="1">
          <mxGeometry relative="1" as="geometry" />
        </mxCell>
        <mxCell id="24964f25f45c63f1-5" value="Gateway" style="shadow=0;dashed=0;html=1;strokeColor=none;shape=mxgraph.mscae.enterprise.gateway;fillColor=#FFFFFF;rounded=0;fontSize=12;fontColor=#FFFFFF;align=center;labelPosition=center;verticalLabelPosition=top;verticalAlign=bottom;" parent="1" vertex="1">
          <mxGeometry x="773" y="541" width="50" height="50" as="geometry" />
        </mxCell>
        <mxCell id="24964f25f45c63f1-6" value="" style="shadow=0;dashed=0;html=1;strokeColor=none;shape=mxgraph.mscae.enterprise.lock;fillColor=#FFFFFF;rounded=0;fontSize=12;fontColor=#000000;align=center;" parent="1" vertex="1">
          <mxGeometry x="896" y="436" width="39" height="50" as="geometry" />
        </mxCell>
        <mxCell id="23046e2b9bb16c14-7" value="" style="shadow=0;dashed=0;html=1;strokeColor=none;labelPosition=center;verticalLabelPosition=bottom;verticalAlign=top;shape=mxgraph.mscae.cloud.azure_load_balancer_feature;fillColor=#FFFFFF;rounded=1;fontSize=12;fontColor=#000000;align=center;" parent="1" vertex="1">
          <mxGeometry x="891" y="541" width="50" height="50" as="geometry" />
        </mxCell>
        <mxCell id="23046e2b9bb16c14-75" style="html=1;startArrow=none;startFill=0;startSize=10;endArrow=none;endFill=0;endSize=10;strokeWidth=3;fontSize=11;fontColor=#FFFFFF;entryX=0.793;entryY=0.26;entryPerimeter=0;strokeColor=#FFFFFF;rounded=0;" parent="1" source="23046e2b9bb16c14-29" target="23046e2b9bb16c14-7" edge="1">
          <mxGeometry relative="1" as="geometry" />
        </mxCell>
        <mxCell id="23046e2b9bb16c14-29" value="" style="verticalLabelPosition=bottom;html=1;verticalAlign=top;strokeColor=none;fillColor=#FFFFFF;shape=mxgraph.azure.virtual_machine;rounded=1;shadow=0;fontSize=12;fontColor=#000000;align=center;" parent="1" vertex="1">
          <mxGeometry x="966" y="493" width="50" height="40" as="geometry" />
        </mxCell>
        <mxCell id="23046e2b9bb16c14-76" style="html=1;entryX=1.016;entryY=0.509;entryPerimeter=0;startArrow=none;startFill=0;startSize=10;endArrow=none;endFill=0;endSize=10;strokeWidth=3;fontSize=11;fontColor=#FFFFFF;strokeColor=#FFFFFF;rounded=0;" parent="1" source="23046e2b9bb16c14-30" target="23046e2b9bb16c14-7" edge="1">
          <mxGeometry relative="1" as="geometry" />
        </mxCell>
        <mxCell id="23046e2b9bb16c14-30" value="" style="verticalLabelPosition=bottom;html=1;verticalAlign=top;strokeColor=none;fillColor=#FFFFFF;shape=mxgraph.azure.virtual_machine;rounded=1;shadow=0;fontSize=12;fontColor=#000000;align=center;" parent="1" vertex="1">
          <mxGeometry x="966" y="546" width="50" height="40" as="geometry" />
        </mxCell>
        <mxCell id="23046e2b9bb16c14-77" style="html=1;entryX=0.802;entryY=0.762;entryPerimeter=0;startArrow=none;startFill=0;startSize=10;endArrow=none;endFill=0;endSize=10;strokeWidth=3;fontSize=11;fontColor=#FFFFFF;strokeColor=#FFFFFF;rounded=0;" parent="1" source="23046e2b9bb16c14-31" target="23046e2b9bb16c14-7" edge="1">
          <mxGeometry relative="1" as="geometry" />
        </mxCell>
        <mxCell id="23046e2b9bb16c14-31" value="" style="verticalLabelPosition=bottom;html=1;verticalAlign=top;strokeColor=none;fillColor=#FFFFFF;shape=mxgraph.azure.virtual_machine;rounded=1;shadow=0;fontSize=12;fontColor=#000000;align=center;" parent="1" vertex="1">
          <mxGeometry x="966" y="598" width="50" height="40" as="geometry" />
        </mxCell>
        <mxCell id="23046e2b9bb16c14-48" value="Azure Vnet" style="shadow=0;dashed=0;html=1;strokeColor=none;fillColor=#FFFFFF;labelPosition=center;verticalLabelPosition=bottom;verticalAlign=top;shape=mxgraph.office.clouds.azure;rounded=1;fontSize=12;fontColor=#FFFFFF;align=center;" parent="1" vertex="1">
          <mxGeometry x="756" y="311" width="83" height="53" as="geometry" />
        </mxCell>
        <mxCell id="23046e2b9bb16c14-50" value="" style="rounded=1;whiteSpace=wrap;html=1;shadow=0;strokeWidth=2;fillColor=none;fontSize=12;fontColor=#000000;align=center;strokeColor=#FFFFFF;" parent="1" vertex="1">
          <mxGeometry x="596" y="409" width="80" height="218" as="geometry" />
        </mxCell>
        <mxCell id="23046e2b9bb16c14-51" value="" style="verticalLabelPosition=bottom;html=1;verticalAlign=top;strokeColor=none;fillColor=#FFFFFF;shape=mxgraph.azure.computer;rounded=0;shadow=0;fontSize=12;fontColor=#000000;align=center;" parent="1" vertex="1">
          <mxGeometry x="611" y="423" width="50" height="45" as="geometry" />
        </mxCell>
        <mxCell id="23046e2b9bb16c14-52" value="" style="verticalLabelPosition=bottom;html=1;verticalAlign=top;strokeColor=none;fillColor=#FFFFFF;shape=mxgraph.azure.computer;rounded=0;shadow=0;fontSize=12;fontColor=#000000;align=center;" parent="1" vertex="1">
          <mxGeometry x="611" y="493" width="50" height="45" as="geometry" />
        </mxCell>
        <mxCell id="23046e2b9bb16c14-53" value="" style="verticalLabelPosition=bottom;html=1;verticalAlign=top;strokeColor=none;fillColor=#FFFFFF;shape=mxgraph.azure.computer;rounded=0;shadow=0;fontSize=12;fontColor=#000000;align=center;" parent="1" vertex="1">
          <mxGeometry x="611" y="563" width="50" height="45" as="geometry" />
        </mxCell>
        <mxCell id="23046e2b9bb16c14-71" style="edgeStyle=orthogonalEdgeStyle;html=1;startArrow=none;startFill=0;startSize=10;endArrow=none;endFill=0;endSize=10;strokeWidth=3;fontSize=11;fontColor=#FFFFFF;strokeColor=#FFFFFF;dashed=1;rounded=0;" parent="1" source="24964f25f45c63f1-4" target="24964f25f45c63f1-5" edge="1">
          <mxGeometry relative="1" as="geometry">
            <Array as="points">
              <mxPoint x="581" y="730" />
              <mxPoint x="798" y="730" />
            </Array>
          </mxGeometry>
        </mxCell>
        <mxCell id="24964f25f45c63f1-4" value="Gateway" style="shadow=0;dashed=0;html=1;strokeColor=none;shape=mxgraph.mscae.enterprise.gateway;fillColor=#FFFFFF;rounded=0;fontSize=12;fontColor=#FFFFFF;align=center;labelPosition=center;verticalLabelPosition=top;verticalAlign=bottom;" parent="1" vertex="1">
          <mxGeometry x="556" y="648" width="50" height="50" as="geometry" />
        </mxCell>
        <mxCell id="23046e2b9bb16c14-55" value="" style="rounded=1;whiteSpace=wrap;html=1;shadow=0;strokeWidth=2;fillColor=none;fontSize=12;fontColor=#000000;align=center;strokeColor=#FFFFFF;arcSize=9;" parent="1" vertex="1">
          <mxGeometry x="1071" y="420" width="160" height="241" as="geometry" />
        </mxCell>
        <mxCell id="23046e2b9bb16c14-56" value="&lt;span&gt;Availability set&lt;/span&gt;" style="rounded=1;whiteSpace=wrap;html=1;shadow=0;strokeWidth=2;fillColor=none;fontSize=11;fontColor=#FFFFFF;align=center;strokeColor=#FFFFFF;dashed=1;verticalAlign=top;" parent="1" vertex="1">
          <mxGeometry x="1151" y="441" width="70" height="211" as="geometry" />
        </mxCell>
        <mxCell id="23046e2b9bb16c14-57" value="" style="shadow=0;dashed=0;html=1;strokeColor=none;shape=mxgraph.mscae.enterprise.lock;fillColor=#FFFFFF;rounded=0;fontSize=12;fontColor=#000000;align=center;" parent="1" vertex="1">
          <mxGeometry x="1091" y="436" width="39" height="50" as="geometry" />
        </mxCell>
        <mxCell id="23046e2b9bb16c14-74" style="html=1;startArrow=none;startFill=0;startSize=10;endArrow=none;endFill=0;endSize=10;strokeWidth=3;fontSize=11;fontColor=#FFFFFF;strokeColor=#FFFFFF;rounded=0;edgeStyle=elbowEdgeStyle;elbow=vertical;" parent="1" source="23046e2b9bb16c14-58" target="23046e2b9bb16c14-2" edge="1">
          <mxGeometry relative="1" as="geometry" />
        </mxCell>
        <mxCell id="23046e2b9bb16c14-78" style="edgeStyle=orthogonalEdgeStyle;html=1;startArrow=none;startFill=0;startSize=10;endArrow=none;endFill=0;endSize=10;strokeWidth=3;fontSize=11;fontColor=#FFFFFF;strokeColor=#FFFFFF;rounded=0;" parent="1" source="23046e2b9bb16c14-58" target="23046e2b9bb16c14-60" edge="1">
          <mxGeometry relative="1" as="geometry" />
        </mxCell>
        <mxCell id="23046e2b9bb16c14-79" style="html=1;startArrow=none;startFill=0;startSize=10;endArrow=none;endFill=0;endSize=10;strokeWidth=3;fontSize=11;fontColor=#FFFFFF;strokeColor=#FFFFFF;rounded=0;exitX=0.796;exitY=0.241;exitPerimeter=0;" parent="1" source="23046e2b9bb16c14-58" target="23046e2b9bb16c14-59" edge="1">
          <mxGeometry relative="1" as="geometry" />
        </mxCell>
        <mxCell id="23046e2b9bb16c14-80" style="html=1;startArrow=none;startFill=0;startSize=10;endArrow=none;endFill=0;endSize=10;strokeWidth=3;fontSize=11;fontColor=#FFFFFF;strokeColor=#FFFFFF;rounded=0;exitX=0.789;exitY=0.767;exitPerimeter=0;" parent="1" source="23046e2b9bb16c14-58" target="23046e2b9bb16c14-61" edge="1">
          <mxGeometry relative="1" as="geometry" />
        </mxCell>
        <mxCell id="23046e2b9bb16c14-58" value="" style="shadow=0;dashed=0;html=1;strokeColor=none;labelPosition=center;verticalLabelPosition=bottom;verticalAlign=top;shape=mxgraph.mscae.cloud.azure_load_balancer_feature;fillColor=#FFFFFF;rounded=1;fontSize=12;fontColor=#000000;align=center;" parent="1" vertex="1">
          <mxGeometry x="1086" y="541" width="50" height="50" as="geometry" />
        </mxCell>
        <mxCell id="23046e2b9bb16c14-59" value="" style="verticalLabelPosition=bottom;html=1;verticalAlign=top;strokeColor=none;fillColor=#FFFFFF;shape=mxgraph.azure.virtual_machine;rounded=1;shadow=0;fontSize=12;fontColor=#000000;align=center;" parent="1" vertex="1">
          <mxGeometry x="1161" y="493" width="50" height="40" as="geometry" />
        </mxCell>
        <mxCell id="23046e2b9bb16c14-60" value="" style="verticalLabelPosition=bottom;html=1;verticalAlign=top;strokeColor=none;fillColor=#FFFFFF;shape=mxgraph.azure.virtual_machine;rounded=1;shadow=0;fontSize=12;fontColor=#000000;align=center;" parent="1" vertex="1">
          <mxGeometry x="1161" y="546" width="50" height="40" as="geometry" />
        </mxCell>
        <mxCell id="23046e2b9bb16c14-61" value="" style="verticalLabelPosition=bottom;html=1;verticalAlign=top;strokeColor=none;fillColor=#FFFFFF;shape=mxgraph.azure.virtual_machine;rounded=1;shadow=0;fontSize=12;fontColor=#000000;align=center;" parent="1" vertex="1">
          <mxGeometry x="1161" y="598" width="50" height="40" as="geometry" />
        </mxCell>
        <mxCell id="23046e2b9bb16c14-69" style="edgeStyle=orthogonalEdgeStyle;html=1;startArrow=none;startFill=0;startSize=10;endArrow=none;endFill=0;endSize=10;strokeWidth=3;fontSize=11;fontColor=#FFFFFF;strokeColor=#FFFFFF;dashed=1;rounded=0;" parent="1" source="23046e2b9bb16c14-62" target="23046e2b9bb16c14-63" edge="1">
          <mxGeometry relative="1" as="geometry" />
        </mxCell>
        <mxCell id="23046e2b9bb16c14-62" value="Firewall" style="shadow=0;dashed=0;html=1;strokeColor=none;labelPosition=right;verticalLabelPosition=middle;verticalAlign=middle;shape=mxgraph.office.concepts.firewall;fillColor=#FFFFFF;rounded=1;fontSize=11;fontColor=#FFFFFF;align=left;spacingLeft=5;" parent="1" vertex="1">
          <mxGeometry x="328" y="475" width="47" height="43" as="geometry" />
        </mxCell>
        <mxCell id="23046e2b9bb16c14-70" style="edgeStyle=orthogonalEdgeStyle;html=1;startArrow=none;startFill=0;startSize=10;endArrow=none;endFill=0;endSize=10;strokeWidth=3;fontSize=11;fontColor=#FFFFFF;strokeColor=#FFFFFF;dashed=1;rounded=0;" parent="1" source="24964f25f45c63f1-4" target="23046e2b9bb16c14-68" edge="1">
          <mxGeometry relative="1" as="geometry">
            <mxPoint x="606" y="730" as="sourcePoint" />
            <Array as="points">
              <mxPoint x="581" y="730" />
              <mxPoint x="1361" y="730" />
            </Array>
          </mxGeometry>
        </mxCell>
        <mxCell id="23046e2b9bb16c14-72" style="edgeStyle=orthogonalEdgeStyle;html=1;startArrow=none;startFill=0;startSize=10;endArrow=none;endFill=0;endSize=10;strokeWidth=3;fontSize=11;fontColor=#FFFFFF;strokeColor=#FFFFFF;dashed=1;rounded=0;" parent="1" source="23046e2b9bb16c14-63" target="24964f25f45c63f1-4" edge="1">
          <mxGeometry relative="1" as="geometry">
            <Array as="points">
              <mxPoint x="351" y="730" />
              <mxPoint x="581" y="730" />
            </Array>
          </mxGeometry>
        </mxCell>
        <mxCell id="23046e2b9bb16c14-63" value="Windows&lt;div&gt;Azure&lt;/div&gt;&lt;div&gt;Load&lt;/div&gt;&lt;div&gt;Balancer&lt;/div&gt;" style="verticalLabelPosition=middle;html=1;verticalAlign=middle;strokeColor=none;fillColor=#FFFFFF;shape=mxgraph.azure.azure_load_balancer;rounded=1;shadow=0;dashed=1;fontSize=11;fontColor=#FFFFFF;align=left;labelPosition=right;spacingLeft=5;" parent="1" vertex="1">
          <mxGeometry x="326" y="593" width="50" height="35" as="geometry" />
        </mxCell>
        <mxCell id="23046e2b9bb16c14-65" value="" style="shadow=0;dashed=0;html=1;strokeColor=none;shape=mxgraph.mscae.enterprise.web;fillColor=#FFFFFF;rounded=1;fontSize=11;fontColor=#FFFFFF;align=center;" parent="1" vertex="1">
          <mxGeometry x="1336" y="531" width="50" height="50" as="geometry" />
        </mxCell>
        <mxCell id="23046e2b9bb16c14-66" value="" style="shadow=0;dashed=0;html=1;strokeColor=none;shape=mxgraph.mscae.enterprise.web;fillColor=#FFFFFF;rounded=1;fontSize=11;fontColor=#FFFFFF;align=center;" parent="1" vertex="1">
          <mxGeometry x="1336" y="450" width="50" height="50" as="geometry" />
        </mxCell>
        <mxCell id="23046e2b9bb16c14-67" value="" style="shadow=0;dashed=0;html=1;strokeColor=none;shape=mxgraph.mscae.enterprise.web;fillColor=#FFFFFF;rounded=1;fontSize=11;fontColor=#FFFFFF;align=center;" parent="1" vertex="1">
          <mxGeometry x="1336" y="370" width="50" height="50" as="geometry" />
        </mxCell>
        <mxCell id="23046e2b9bb16c14-117" style="edgeStyle=orthogonalEdgeStyle;rounded=0;elbow=vertical;html=1;startArrow=none;startFill=0;startSize=10;endArrow=none;endFill=0;endSize=10;strokeColor=#FFFFFF;strokeWidth=3;fontSize=20;fontColor=#FFFFFF;entryX=0.004;entryY=0.516;entryPerimeter=0;" parent="1" source="23046e2b9bb16c14-68" target="23046e2b9bb16c14-65" edge="1">
          <mxGeometry relative="1" as="geometry">
            <mxPoint x="1520" y="590" as="targetPoint" />
            <Array as="points">
              <mxPoint x="1326" y="673" />
              <mxPoint x="1326" y="557" />
            </Array>
          </mxGeometry>
        </mxCell>
        <mxCell id="23046e2b9bb16c14-119" style="edgeStyle=orthogonalEdgeStyle;rounded=0;elbow=vertical;html=1;entryX=-0.002;entryY=0.494;entryPerimeter=0;startArrow=none;startFill=0;startSize=10;endArrow=none;endFill=0;endSize=10;strokeColor=#FFFFFF;strokeWidth=3;fontSize=20;fontColor=#FFFFFF;" parent="1" source="23046e2b9bb16c14-68" target="23046e2b9bb16c14-67" edge="1">
          <mxGeometry relative="1" as="geometry">
            <Array as="points">
              <mxPoint x="1326" y="673" />
              <mxPoint x="1326" y="395" />
            </Array>
          </mxGeometry>
        </mxCell>
        <mxCell id="23046e2b9bb16c14-68" value="Gateway" style="shadow=0;dashed=0;html=1;strokeColor=none;shape=mxgraph.mscae.enterprise.gateway;fillColor=#FFFFFF;rounded=0;fontSize=12;fontColor=#FFFFFF;align=center;labelPosition=center;verticalLabelPosition=top;verticalAlign=bottom;" parent="1" vertex="1">
          <mxGeometry x="1336" y="648" width="50" height="50" as="geometry" />
        </mxCell>
        <mxCell id="23046e2b9bb16c14-81" value="A" style="text;html=1;strokeColor=none;fillColor=none;align=center;verticalAlign=middle;whiteSpace=wrap;rounded=1;shadow=0;fontSize=11;fontColor=#FFFFFF;fontStyle=1" parent="1" vertex="1">
          <mxGeometry x="666" y="678" width="20" height="20" as="geometry" />
        </mxCell>
        <mxCell id="23046e2b9bb16c14-82" value="B" style="text;html=1;strokeColor=none;fillColor=none;align=center;verticalAlign=middle;whiteSpace=wrap;rounded=1;shadow=0;fontSize=11;fontColor=#FFFFFF;fontStyle=1" parent="1" vertex="1">
          <mxGeometry x="1226" y="678" width="20" height="20" as="geometry" />
        </mxCell>
        <mxCell id="23046e2b9bb16c14-83" value="C" style="text;html=1;strokeColor=none;fillColor=none;align=center;verticalAlign=middle;whiteSpace=wrap;rounded=1;shadow=0;fontSize=11;fontColor=#FFFFFF;fontStyle=1" parent="1" vertex="1">
          <mxGeometry x="1406" y="680" width="20" height="20" as="geometry" />
        </mxCell>
        <mxCell id="23046e2b9bb16c14-84" value="" style="rounded=0;whiteSpace=wrap;html=1;shadow=0;strokeWidth=2;fillColor=#F04D22;fontSize=12;fontColor=#FFFFFF;align=center;strokeColor=none;arcSize=6;verticalAlign=top;" parent="1" vertex="1">
          <mxGeometry x="326" y="820" width="300" height="102" as="geometry" />
        </mxCell>
        <mxCell id="23046e2b9bb16c14-85" value="" style="rounded=0;whiteSpace=wrap;html=1;shadow=0;strokeWidth=2;fillColor=#8BC63E;fontSize=12;fontColor=#FFFFFF;align=center;strokeColor=none;arcSize=6;verticalAlign=top;" parent="1" vertex="1">
          <mxGeometry x="626" y="820" width="400" height="102" as="geometry" />
        </mxCell>
        <mxCell id="23046e2b9bb16c14-86" value="" style="rounded=0;whiteSpace=wrap;html=1;shadow=0;strokeWidth=2;fillColor=#0072BC;fontSize=12;fontColor=#FFFFFF;align=center;strokeColor=none;arcSize=3;verticalAlign=top;" parent="1" vertex="1">
          <mxGeometry x="1026" y="820" width="390" height="102" as="geometry" />
        </mxCell>
        <mxCell id="23046e2b9bb16c14-87" value="A" style="text;html=1;strokeColor=none;fillColor=none;align=center;verticalAlign=middle;whiteSpace=wrap;rounded=1;shadow=0;fontSize=30;fontColor=#FFFFFF;fontStyle=1" parent="1" vertex="1">
          <mxGeometry x="326" y="853" width="40" height="35" as="geometry" />
        </mxCell>
        <mxCell id="23046e2b9bb16c14-88" value="B" style="text;html=1;strokeColor=none;fillColor=none;align=center;verticalAlign=middle;whiteSpace=wrap;rounded=1;shadow=0;fontSize=30;fontColor=#FFFFFF;fontStyle=1" parent="1" vertex="1">
          <mxGeometry x="626" y="853" width="40" height="35" as="geometry" />
        </mxCell>
        <mxCell id="23046e2b9bb16c14-89" value="C" style="text;html=1;strokeColor=none;fillColor=none;align=center;verticalAlign=middle;whiteSpace=wrap;rounded=1;shadow=0;fontSize=30;fontColor=#FFFFFF;fontStyle=1" parent="1" vertex="1">
          <mxGeometry x="1026" y="853" width="40" height="35" as="geometry" />
        </mxCell>
        <mxCell id="23046e2b9bb16c14-90" value="Computer" style="verticalLabelPosition=top;html=1;verticalAlign=bottom;strokeColor=none;fillColor=#FFFFFF;shape=mxgraph.azure.computer;rounded=0;shadow=0;fontSize=10;fontColor=#FFFFFF;align=center;labelPosition=center;" parent="1" vertex="1">
          <mxGeometry x="393" y="860" width="50" height="45" as="geometry" />
        </mxCell>
        <mxCell id="23046e2b9bb16c14-91" value="VHD" style="shadow=0;html=1;strokeColor=none;fillColor=#FFFFFF;labelPosition=center;verticalLabelPosition=top;verticalAlign=bottom;shape=mxgraph.azure.vhd;rounded=0;fontSize=10;fontColor=#FFFFFF;align=center;" parent="1" vertex="1">
          <mxGeometry x="483" y="857" width="40" height="50" as="geometry" />
        </mxCell>
        <mxCell id="23046e2b9bb16c14-92" value="+" style="text;html=1;strokeColor=none;fillColor=none;align=center;verticalAlign=middle;whiteSpace=wrap;rounded=1;shadow=0;fontSize=30;fontColor=#FFFFFF;fontStyle=1" parent="1" vertex="1">
          <mxGeometry x="443" y="865" width="40" height="35" as="geometry" />
        </mxCell>
        <mxCell id="23046e2b9bb16c14-93" value="+" style="text;html=1;strokeColor=none;fillColor=none;align=center;verticalAlign=middle;whiteSpace=wrap;rounded=1;shadow=0;fontSize=30;fontColor=#FFFFFF;fontStyle=1" parent="1" vertex="1">
          <mxGeometry x="523" y="865" width="40" height="35" as="geometry" />
        </mxCell>
        <mxCell id="23046e2b9bb16c14-94" value="Server&lt;div&gt;Directory&lt;/div&gt;" style="shadow=0;html=1;strokeColor=none;shape=mxgraph.mscae.enterprise.server_directory;fillColor=#FFFFFF;rounded=0;fontSize=10;fontColor=#FFFFFF;align=center;verticalAlign=bottom;labelPosition=center;verticalLabelPosition=top;" parent="1" vertex="1">
          <mxGeometry x="563" y="858" width="36" height="50" as="geometry" />
        </mxCell>
        <mxCell id="23046e2b9bb16c14-95" value="VM Feature" style="shadow=0;html=1;strokeColor=none;fillColor=#FFFFFF;labelPosition=center;verticalLabelPosition=top;verticalAlign=bottom;shape=mxgraph.azure.virtual_machine_feature;rounded=0;fontSize=10;fontColor=#FFFFFF;align=center;" parent="1" vertex="1">
          <mxGeometry x="684" y="861" width="50" height="45" as="geometry" />
        </mxCell>
        <mxCell id="23046e2b9bb16c14-96" value="+" style="text;html=1;strokeColor=none;fillColor=none;align=center;verticalAlign=middle;whiteSpace=wrap;rounded=1;shadow=0;fontSize=30;fontColor=#FFFFFF;fontStyle=1" parent="1" vertex="1">
          <mxGeometry x="734" y="866" width="40" height="35" as="geometry" />
        </mxCell>
        <mxCell id="23046e2b9bb16c14-97" value="VHD" style="shadow=0;html=1;strokeColor=none;fillColor=#FFFFFF;labelPosition=center;verticalLabelPosition=top;verticalAlign=bottom;shape=mxgraph.azure.vhd;rounded=0;fontSize=10;fontColor=#FFFFFF;align=center;" parent="1" vertex="1">
          <mxGeometry x="774" y="858" width="40" height="50" as="geometry" />
        </mxCell>
        <mxCell id="23046e2b9bb16c14-98" value="3rd Party&lt;div&gt;Integration&lt;/div&gt;" style="shadow=0;html=1;strokeColor=none;fillColor=#FFFFFF;labelPosition=center;verticalLabelPosition=top;verticalAlign=bottom;shape=mxgraph.office.communications.3rd_party_integration;rounded=0;fontSize=10;fontColor=#FFFFFF;align=center;" parent="1" vertex="1">
          <mxGeometry x="854" y="856" width="54" height="55" as="geometry" />
        </mxCell>
        <mxCell id="23046e2b9bb16c14-99" value="+" style="text;html=1;strokeColor=none;fillColor=none;align=center;verticalAlign=middle;whiteSpace=wrap;rounded=1;shadow=0;fontSize=30;fontColor=#FFFFFF;fontStyle=1" parent="1" vertex="1">
          <mxGeometry x="814" y="866" width="40" height="35" as="geometry" />
        </mxCell>
        <mxCell id="23046e2b9bb16c14-100" value="+" style="text;html=1;strokeColor=none;fillColor=none;align=center;verticalAlign=middle;whiteSpace=wrap;rounded=1;shadow=0;fontSize=30;fontColor=#FFFFFF;fontStyle=1" parent="1" vertex="1">
          <mxGeometry x="908" y="866" width="40" height="35" as="geometry" />
        </mxCell>
        <mxCell id="23046e2b9bb16c14-101" value="Data Migration&lt;div&gt;Wizard&lt;/div&gt;" style="shadow=0;html=1;strokeColor=none;shape=mxgraph.mscae.intune.data_migration_wizard;fillColor=#FFFFFF;rounded=0;fontSize=10;fontColor=#FFFFFF;align=center;verticalAlign=bottom;labelPosition=center;verticalLabelPosition=top;" parent="1" vertex="1">
          <mxGeometry x="948" y="859" width="50" height="48" as="geometry" />
        </mxCell>
        <mxCell id="23046e2b9bb16c14-102" value="VM Feature" style="shadow=0;html=1;strokeColor=none;fillColor=#FFFFFF;labelPosition=center;verticalLabelPosition=top;verticalAlign=bottom;shape=mxgraph.azure.virtual_machine_feature;rounded=0;fontSize=10;fontColor=#FFFFFF;align=center;" parent="1" vertex="1">
          <mxGeometry x="1086" y="861" width="50" height="45" as="geometry" />
        </mxCell>
        <mxCell id="23046e2b9bb16c14-103" value="" style="line;strokeWidth=2;direction=south;html=1;rounded=0;shadow=0;fillColor=none;fontSize=30;fontColor=#FFFFFF;align=center;strokeColor=#FFFFFF;" parent="1" vertex="1">
          <mxGeometry x="366" y="820" width="10" height="102" as="geometry" />
        </mxCell>
        <mxCell id="23046e2b9bb16c14-104" value="" style="line;strokeWidth=2;direction=south;html=1;rounded=0;shadow=0;fillColor=none;fontSize=30;fontColor=#FFFFFF;align=center;strokeColor=#FFFFFF;" parent="1" vertex="1">
          <mxGeometry x="666" y="820" width="10" height="102" as="geometry" />
        </mxCell>
        <mxCell id="23046e2b9bb16c14-105" value="" style="line;strokeWidth=2;direction=south;html=1;rounded=0;shadow=0;fillColor=none;fontSize=30;fontColor=#FFFFFF;align=center;strokeColor=#FFFFFF;" parent="1" vertex="1">
          <mxGeometry x="1066" y="820" width="10" height="102" as="geometry" />
        </mxCell>
        <mxCell id="23046e2b9bb16c14-106" value="+" style="text;html=1;strokeColor=none;fillColor=none;align=center;verticalAlign=middle;whiteSpace=wrap;rounded=1;shadow=0;fontSize=30;fontColor=#FFFFFF;fontStyle=1" parent="1" vertex="1">
          <mxGeometry x="1136" y="866" width="40" height="35" as="geometry" />
        </mxCell>
        <mxCell id="23046e2b9bb16c14-107" value="Azure&lt;div&gt;Website&lt;/div&gt;" style="verticalLabelPosition=top;html=1;verticalAlign=bottom;strokeColor=none;fillColor=#FFFFFF;shape=mxgraph.azure.azure_website;rounded=0;shadow=0;fontSize=10;fontColor=#FFFFFF;align=center;labelPosition=center;" parent="1" vertex="1">
          <mxGeometry x="1176" y="858" width="50" height="50" as="geometry" />
        </mxCell>
        <mxCell id="23046e2b9bb16c14-108" value="+" style="text;html=1;strokeColor=none;fillColor=none;align=center;verticalAlign=middle;whiteSpace=wrap;rounded=1;shadow=0;fontSize=30;fontColor=#FFFFFF;fontStyle=1" parent="1" vertex="1">
          <mxGeometry x="1226" y="866" width="40" height="35" as="geometry" />
        </mxCell>
        <mxCell id="23046e2b9bb16c14-109" value="MySQL&lt;div&gt;Database&lt;/div&gt;" style="verticalLabelPosition=top;html=1;verticalAlign=bottom;strokeColor=none;fillColor=#FFFFFF;shape=mxgraph.azure.mysql_database;rounded=0;shadow=0;fontSize=10;fontColor=#FFFFFF;align=center;labelPosition=center;" parent="1" vertex="1">
          <mxGeometry x="1266" y="859" width="37.5" height="50" as="geometry" />
        </mxCell>
        <mxCell id="23046e2b9bb16c14-110" value="+" style="text;html=1;strokeColor=none;fillColor=none;align=center;verticalAlign=middle;whiteSpace=wrap;rounded=1;shadow=0;fontSize=30;fontColor=#FFFFFF;fontStyle=1" parent="1" vertex="1">
          <mxGeometry x="1304" y="866" width="40" height="35" as="geometry" />
        </mxCell>
        <mxCell id="23046e2b9bb16c14-111" value="Azure&lt;div&gt;Storage&lt;/div&gt;" style="shadow=0;html=1;strokeColor=none;labelPosition=center;verticalLabelPosition=top;verticalAlign=bottom;shape=mxgraph.mscae.cloud.azure_storage;fillColor=#FFFFFF;rounded=0;fontSize=10;fontColor=#FFFFFF;align=center;" parent="1" vertex="1">
          <mxGeometry x="1344" y="862" width="50" height="43" as="geometry" />
        </mxCell>
        <mxCell id="23046e2b9bb16c14-113" value="Title" style="text;strokeColor=none;fillColor=none;html=1;fontSize=24;fontStyle=1;verticalAlign=middle;align=center;rounded=0;shadow=0;fontColor=#FFFFFF;" parent="1" vertex="1">
          <mxGeometry x="120" y="40" width="1510" height="40" as="geometry" />
        </mxCell>
        <mxCell id="23046e2b9bb16c14-114" value="Subtitle" style="text;html=1;strokeColor=none;fillColor=none;align=center;verticalAlign=middle;whiteSpace=wrap;rounded=0;shadow=0;fontSize=10;fontColor=#009BFF;" parent="1" vertex="1">
          <mxGeometry x="114" y="90" width="1526" height="20" as="geometry" />
        </mxCell>
        <mxCell id="23046e2b9bb16c14-115" value="&lt;h1&gt;Heading&lt;/h1&gt;&lt;p&gt;Lorem ipsum dolor sit amet, consectetur adipisicing elit, sed do eiusmod tempor incididunt ut labore et dolore magna aliqua.&lt;/p&gt;" style="text;html=1;strokeColor=none;fillColor=none;spacing=5;spacingTop=-20;whiteSpace=wrap;overflow=hidden;rounded=0;shadow=0;fontSize=10;fontColor=#FFFFFF;align=left;" parent="1" vertex="1">
          <mxGeometry x="323" y="952" width="1041" height="70" as="geometry" />
        </mxCell>
        <mxCell id="23046e2b9bb16c14-118" style="edgeStyle=orthogonalEdgeStyle;rounded=0;elbow=vertical;html=1;startArrow=none;startFill=0;startSize=10;endArrow=none;endFill=0;endSize=10;strokeColor=#FFFFFF;strokeWidth=3;fontSize=20;fontColor=#FFFFFF;entryX=-0.009;entryY=0.502;entryPerimeter=0;" parent="1" source="23046e2b9bb16c14-68" target="23046e2b9bb16c14-66" edge="1">
          <mxGeometry relative="1" as="geometry">
            <mxPoint x="1346.3333333333333" y="566.6666666666666" as="targetPoint" />
            <mxPoint x="1371" y="658" as="sourcePoint" />
            <Array as="points">
              <mxPoint x="1326" y="673" />
              <mxPoint x="1326" y="475" />
            </Array>
          </mxGeometry>
        </mxCell>
        <mxCell id="lDHJfgaJlsZgmha4-692-1" value="业务数据" style="rounded=1;whiteSpace=wrap;html=1;arcSize=25;" vertex="1" parent="1">
          <mxGeometry x="60" y="1320" width="130" height="590" as="geometry" />
        </mxCell>
        <mxCell id="lDHJfgaJlsZgmha4-692-6" value="" style="shape=flexArrow;endArrow=classic;html=1;rounded=0;" edge="1" parent="1">
          <mxGeometry width="50" height="50" relative="1" as="geometry">
            <mxPoint x="499.82" y="1610" as="sourcePoint" />
            <mxPoint x="499.82" y="1730" as="targetPoint" />
          </mxGeometry>
        </mxCell>
        <mxCell id="lDHJfgaJlsZgmha4-692-7" value="" style="shape=flexArrow;endArrow=classic;html=1;rounded=0;" edge="1" parent="1">
          <mxGeometry width="50" height="50" relative="1" as="geometry">
            <mxPoint x="570.4999999999999" y="1750" as="sourcePoint" />
            <mxPoint x="569.9999999999999" y="1630" as="targetPoint" />
          </mxGeometry>
        </mxCell>
        <mxCell id="lDHJfgaJlsZgmha4-692-10" value="&lt;font color=&quot;#ffffff&quot;&gt;阿里云&lt;/font&gt;" style="ellipse;shape=cloud;whiteSpace=wrap;html=1;fillColor=#ff7e08;strokeColor=none;" vertex="1" parent="1">
          <mxGeometry x="323" y="1362" width="447" height="228" as="geometry" />
        </mxCell>
        <mxCell id="lDHJfgaJlsZgmha4-692-15" value="自有平台" style="ellipse;shape=cloud;whiteSpace=wrap;html=1;fillColor=#cdeb8b;strokeColor=none;" vertex="1" parent="1">
          <mxGeometry x="436" y="1779" width="190" height="131" as="geometry" />
        </mxCell>
        <mxCell id="lDHJfgaJlsZgmha4-692-16" value="数据交互" style="text;html=1;strokeColor=none;fillColor=none;align=center;verticalAlign=middle;whiteSpace=wrap;rounded=0;" vertex="1" parent="1">
          <mxGeometry x="406" y="1650" width="60" height="30" as="geometry" />
        </mxCell>
        <mxCell id="lDHJfgaJlsZgmha4-692-19" value="" style="shape=flexArrow;endArrow=classic;html=1;rounded=0;" edge="1" parent="1">
          <mxGeometry width="50" height="50" relative="1" as="geometry">
            <mxPoint x="220" y="1440" as="sourcePoint" />
            <mxPoint x="300" y="1440" as="targetPoint" />
          </mxGeometry>
        </mxCell>
        <mxCell id="lDHJfgaJlsZgmha4-692-20" value="" style="shape=flexArrow;endArrow=classic;html=1;rounded=0;" edge="1" parent="1">
          <mxGeometry width="50" height="50" relative="1" as="geometry">
            <mxPoint x="220" y="1840" as="sourcePoint" />
            <mxPoint x="300" y="1840" as="targetPoint" />
          </mxGeometry>
        </mxCell>
        <mxCell id="lDHJfgaJlsZgmha4-692-21" value="数据集成" style="text;html=1;align=center;verticalAlign=middle;resizable=0;points=[];autosize=1;strokeColor=none;fillColor=none;" vertex="1" parent="1">
          <mxGeometry x="220" y="1398" width="70" height="30" as="geometry" />
        </mxCell>
        <mxCell id="lDHJfgaJlsZgmha4-692-22" value="数据集成" style="text;html=1;align=center;verticalAlign=middle;resizable=0;points=[];autosize=1;strokeColor=none;fillColor=none;" vertex="1" parent="1">
          <mxGeometry x="220" y="1792" width="70" height="30" as="geometry" />
        </mxCell>
        <mxCell id="lDHJfgaJlsZgmha4-692-24" value="mq" style="shape=cylinder3;whiteSpace=wrap;html=1;boundedLbl=1;backgroundOutline=1;size=15;rotation=90;horizontal=0;" vertex="1" parent="1">
          <mxGeometry x="1100" y="1692" width="40" height="230" as="geometry" />
        </mxCell>
        <mxCell id="lDHJfgaJlsZgmha4-692-26" value="bi-数据库" style="shape=datastore;whiteSpace=wrap;html=1;" vertex="1" parent="1">
          <mxGeometry x="1060" y="1430" width="90" height="82" as="geometry" />
        </mxCell>
        <mxCell id="lDHJfgaJlsZgmha4-692-27" value="业务数据库" style="shape=datastore;whiteSpace=wrap;html=1;" vertex="1" parent="1">
          <mxGeometry x="1376" y="1770" width="84" height="80" as="geometry" />
        </mxCell>
        <mxCell id="lDHJfgaJlsZgmha4-692-28" value="报表可视化" style="rounded=1;whiteSpace=wrap;html=1;" vertex="1" parent="1">
          <mxGeometry x="1376" y="1400" width="120" height="60" as="geometry" />
        </mxCell>
        <mxCell id="lDHJfgaJlsZgmha4-692-29" value="" style="shape=flexArrow;endArrow=classic;html=1;rounded=0;" edge="1" parent="1">
          <mxGeometry width="50" height="50" relative="1" as="geometry">
            <mxPoint x="891" y="1670" as="sourcePoint" />
            <mxPoint x="971" y="1670" as="targetPoint" />
          </mxGeometry>
        </mxCell>
        <mxCell id="lDHJfgaJlsZgmha4-692-30" value="" style="shape=flexArrow;endArrow=classic;html=1;rounded=0;" edge="1" parent="1">
          <mxGeometry width="50" height="50" relative="1" as="geometry">
            <mxPoint x="1221" y="1474" as="sourcePoint" />
            <mxPoint x="1301" y="1474" as="targetPoint" />
          </mxGeometry>
        </mxCell>
        <mxCell id="lDHJfgaJlsZgmha4-692-31" value="数据计算" style="text;html=1;align=center;verticalAlign=middle;resizable=0;points=[];autosize=1;strokeColor=none;fillColor=none;" vertex="1" parent="1">
          <mxGeometry x="546" y="1258" width="70" height="30" as="geometry" />
        </mxCell>
        <mxCell id="lDHJfgaJlsZgmha4-692-32" value="数据使用" style="text;html=1;align=center;verticalAlign=middle;resizable=0;points=[];autosize=1;strokeColor=none;fillColor=none;" vertex="1" parent="1">
          <mxGeometry x="1176" y="1258" width="70" height="30" as="geometry" />
        </mxCell>
        <mxCell id="lDHJfgaJlsZgmha4-692-33" value="数据集成" style="text;html=1;align=center;verticalAlign=middle;resizable=0;points=[];autosize=1;strokeColor=none;fillColor=none;" vertex="1" parent="1">
          <mxGeometry x="220" y="1250" width="70" height="30" as="geometry" />
        </mxCell>
        <mxCell id="lDHJfgaJlsZgmha4-692-34" value="数据服务" style="rounded=1;whiteSpace=wrap;html=1;" vertex="1" parent="1">
          <mxGeometry x="1376" y="1531" width="120" height="60" as="geometry" />
        </mxCell>
        <mxCell id="lDHJfgaJlsZgmha4-692-35" value="" style="shape=flexArrow;endArrow=classic;html=1;rounded=0;" edge="1" parent="1">
          <mxGeometry width="50" height="50" relative="1" as="geometry">
            <mxPoint x="1276" y="1806.5" as="sourcePoint" />
            <mxPoint x="1356" y="1806.5" as="targetPoint" />
          </mxGeometry>
        </mxCell>
        <mxCell id="lDHJfgaJlsZgmha4-692-37" value="" style="shape=flexArrow;endArrow=classic;html=1;rounded=0;" edge="1" parent="1">
          <mxGeometry width="50" height="50" relative="1" as="geometry">
            <mxPoint x="900" y="1530" as="sourcePoint" />
            <mxPoint x="1300" y="1530" as="targetPoint" />
          </mxGeometry>
        </mxCell>
        <mxCell id="lDHJfgaJlsZgmha4-692-38" value="&lt;font color=&quot;#ffffff&quot;&gt;阿里云&lt;/font&gt;" style="ellipse;shape=cloud;whiteSpace=wrap;html=1;fillColor=#ff7e08;strokeColor=none;" vertex="1" parent="1">
          <mxGeometry x="10" y="2030" width="210" height="150" as="geometry" />
        </mxCell>
        <mxCell id="lDHJfgaJlsZgmha4-692-39" value="云上， 离线数仓架构" style="text;html=1;align=center;verticalAlign=middle;resizable=0;points=[];autosize=1;strokeColor=none;fillColor=none;" vertex="1" parent="1">
          <mxGeometry x="255" y="2090" width="130" height="30" as="geometry" />
        </mxCell>
        <mxCell id="lDHJfgaJlsZgmha4-692-106" value="" style="group" vertex="1" connectable="0" parent="1">
          <mxGeometry x="340" y="2250" width="866" height="290" as="geometry" />
        </mxCell>
        <mxCell id="lDHJfgaJlsZgmha4-692-69" value="" style="rounded=1;whiteSpace=wrap;html=1;fillColor=#eeeeee;strokeColor=none;" vertex="1" parent="lDHJfgaJlsZgmha4-692-106">
          <mxGeometry x="516" width="350" height="290" as="geometry" />
        </mxCell>
        <mxCell id="lDHJfgaJlsZgmha4-692-40" value="&lt;font style=&quot;font-size: 20px;&quot;&gt;Dataworks 数据集成&lt;/font&gt;" style="rounded=1;whiteSpace=wrap;html=1;arcSize=13;fillColor=#FF7E08;fontStyle=1;fontColor=#FFFFFF;strokeColor=none;horizontal=1;" vertex="1" parent="lDHJfgaJlsZgmha4-692-106">
          <mxGeometry x="139" width="114.5" height="290" as="geometry" />
        </mxCell>
        <mxCell id="lDHJfgaJlsZgmha4-692-41" value="&lt;font style=&quot;font-size: 15px;&quot; color=&quot;#ffffff&quot;&gt;MaxCompute&lt;br&gt;大数据离线计算&lt;/font&gt;" style="rounded=1;whiteSpace=wrap;html=1;strokeColor=none;fillColor=#FF7E08;fontStyle=1" vertex="1" parent="lDHJfgaJlsZgmha4-692-106">
          <mxGeometry x="322.75" width="117.25" height="290" as="geometry" />
        </mxCell>
        <mxCell id="lDHJfgaJlsZgmha4-692-101" style="edgeStyle=orthogonalEdgeStyle;rounded=0;orthogonalLoop=1;jettySize=auto;html=1;exitX=1;exitY=0.5;exitDx=0;exitDy=0;entryX=0.009;entryY=0.911;entryDx=0;entryDy=0;entryPerimeter=0;" edge="1" parent="lDHJfgaJlsZgmha4-692-106" source="lDHJfgaJlsZgmha4-692-44" target="lDHJfgaJlsZgmha4-692-40">
          <mxGeometry relative="1" as="geometry">
            <mxPoint x="113" y="230" as="targetPoint" />
          </mxGeometry>
        </mxCell>
        <mxCell id="lDHJfgaJlsZgmha4-692-44" value="&lt;span style=&quot;font-size: 20px;&quot;&gt;......&lt;/span&gt;" style="rounded=1;whiteSpace=wrap;html=1;arcSize=13;fillColor=#1ba1e2;strokeColor=#006EAF;fontStyle=1;fontColor=#ffffff;" vertex="1" parent="lDHJfgaJlsZgmha4-692-106">
          <mxGeometry y="240" width="100" height="50" as="geometry" />
        </mxCell>
        <mxCell id="lDHJfgaJlsZgmha4-692-66" value="" style="group" vertex="1" connectable="0" parent="lDHJfgaJlsZgmha4-692-106">
          <mxGeometry x="539" y="10" width="132.5" height="270" as="geometry" />
        </mxCell>
        <mxCell id="lDHJfgaJlsZgmha4-692-46" value="" style="rounded=1;whiteSpace=wrap;html=1;fillColor=#cdeb8b;strokeColor=none;" vertex="1" parent="lDHJfgaJlsZgmha4-692-66">
          <mxGeometry width="132.5" height="270" as="geometry" />
        </mxCell>
        <mxCell id="lDHJfgaJlsZgmha4-692-47" value="ODS原始数据" style="rounded=1;whiteSpace=wrap;html=1;fillColor=#60a917;fontColor=#ffffff;strokeColor=none;" vertex="1" parent="lDHJfgaJlsZgmha4-692-66">
          <mxGeometry x="24.25" y="233.68965517241378" width="84" height="27.93103448275862" as="geometry" />
        </mxCell>
        <mxCell id="lDHJfgaJlsZgmha4-692-48" value="DWD明细数据" style="rounded=1;whiteSpace=wrap;html=1;fillColor=#60a917;fontColor=#ffffff;strokeColor=none;" vertex="1" parent="lDHJfgaJlsZgmha4-692-66">
          <mxGeometry x="24.25" y="177.82758620689654" width="84" height="27.93103448275862" as="geometry" />
        </mxCell>
        <mxCell id="lDHJfgaJlsZgmha4-692-57" style="edgeStyle=orthogonalEdgeStyle;rounded=0;orthogonalLoop=1;jettySize=auto;html=1;exitX=0.5;exitY=0;exitDx=0;exitDy=0;entryX=0.5;entryY=1;entryDx=0;entryDy=0;" edge="1" parent="lDHJfgaJlsZgmha4-692-66" source="lDHJfgaJlsZgmha4-692-47" target="lDHJfgaJlsZgmha4-692-48">
          <mxGeometry relative="1" as="geometry" />
        </mxCell>
        <mxCell id="lDHJfgaJlsZgmha4-692-49" value="DWS公共汇总" style="rounded=1;whiteSpace=wrap;html=1;fillColor=#60a917;fontColor=#ffffff;strokeColor=#2D7600;" vertex="1" parent="lDHJfgaJlsZgmha4-692-66">
          <mxGeometry x="24.25" y="121.9655172413793" width="84" height="27.93103448275862" as="geometry" />
        </mxCell>
        <mxCell id="lDHJfgaJlsZgmha4-692-58" style="edgeStyle=orthogonalEdgeStyle;rounded=0;orthogonalLoop=1;jettySize=auto;html=1;exitX=0.5;exitY=0;exitDx=0;exitDy=0;entryX=0.5;entryY=1;entryDx=0;entryDy=0;" edge="1" parent="lDHJfgaJlsZgmha4-692-66" source="lDHJfgaJlsZgmha4-692-48" target="lDHJfgaJlsZgmha4-692-49">
          <mxGeometry relative="1" as="geometry" />
        </mxCell>
        <mxCell id="lDHJfgaJlsZgmha4-692-50" value="ADS应用数据" style="rounded=1;whiteSpace=wrap;html=1;fillColor=#60a917;fontColor=#ffffff;strokeColor=none;" vertex="1" parent="lDHJfgaJlsZgmha4-692-66">
          <mxGeometry x="24.25" y="66.10344827586206" width="84" height="27.93103448275862" as="geometry" />
        </mxCell>
        <mxCell id="lDHJfgaJlsZgmha4-692-59" style="edgeStyle=orthogonalEdgeStyle;rounded=0;orthogonalLoop=1;jettySize=auto;html=1;exitX=0.5;exitY=0;exitDx=0;exitDy=0;entryX=0.5;entryY=1;entryDx=0;entryDy=0;" edge="1" parent="lDHJfgaJlsZgmha4-692-66" source="lDHJfgaJlsZgmha4-692-49" target="lDHJfgaJlsZgmha4-692-50">
          <mxGeometry relative="1" as="geometry" />
        </mxCell>
        <mxCell id="lDHJfgaJlsZgmha4-692-54" value="数据层级" style="text;html=1;strokeColor=none;fillColor=none;align=center;verticalAlign=middle;whiteSpace=wrap;rounded=0;fontStyle=1;fontSize=14;" vertex="1" parent="lDHJfgaJlsZgmha4-692-66">
          <mxGeometry x="36.25" y="19.551724137931036" width="60" height="27.93103448275862" as="geometry" />
        </mxCell>
        <mxCell id="lDHJfgaJlsZgmha4-692-73" value="DWS公共汇总" style="rounded=1;whiteSpace=wrap;html=1;fillColor=#60a917;fontColor=#ffffff;strokeColor=none;" vertex="1" parent="lDHJfgaJlsZgmha4-692-66">
          <mxGeometry x="24.25" y="121.96551724137953" width="84" height="27.93103448275862" as="geometry" />
        </mxCell>
        <mxCell id="lDHJfgaJlsZgmha4-692-70" value="" style="shape=flexArrow;endArrow=classic;html=1;rounded=0;fillColor=#f5f5f5;gradientColor=#b3b3b3;strokeColor=#666666;" edge="1" parent="lDHJfgaJlsZgmha4-692-106">
          <mxGeometry width="50" height="50" relative="1" as="geometry">
            <mxPoint x="449.75" y="90" as="sourcePoint" />
            <mxPoint x="509.75" y="90" as="targetPoint" />
          </mxGeometry>
        </mxCell>
        <mxCell id="lDHJfgaJlsZgmha4-692-71" value="" style="shape=flexArrow;endArrow=classic;html=1;rounded=0;fillColor=#f5f5f5;gradientColor=#b3b3b3;strokeColor=#666666;" edge="1" parent="lDHJfgaJlsZgmha4-692-106">
          <mxGeometry width="50" height="50" relative="1" as="geometry">
            <mxPoint x="512.75" y="220" as="sourcePoint" />
            <mxPoint x="452.75" y="220" as="targetPoint" />
          </mxGeometry>
        </mxCell>
        <mxCell id="lDHJfgaJlsZgmha4-692-45" value="" style="rounded=1;whiteSpace=wrap;html=1;strokeColor=none;fillColor=#FF7E08;" vertex="1" parent="lDHJfgaJlsZgmha4-692-106">
          <mxGeometry x="699" y="10" width="146" height="270" as="geometry" />
        </mxCell>
        <mxCell id="lDHJfgaJlsZgmha4-692-60" value="DataWorks" style="text;html=1;strokeColor=none;fillColor=none;align=center;verticalAlign=middle;whiteSpace=wrap;rounded=0;fontStyle=1;fontSize=14;" vertex="1" parent="lDHJfgaJlsZgmha4-692-106">
          <mxGeometry x="741.3662237762237" y="28.620689655172555" width="61.25874125874126" height="27.93103448275862" as="geometry" />
        </mxCell>
        <mxCell id="lDHJfgaJlsZgmha4-692-61" value="数据开发" style="rounded=0;whiteSpace=wrap;html=1;fillColor=#FFA914;strokeColor=none;fontColor=#FFFFFF;" vertex="1" parent="lDHJfgaJlsZgmha4-692-106">
          <mxGeometry x="720.3071328671329" y="75.17241379310326" width="106.18181818181819" height="29.79310344827586" as="geometry" />
        </mxCell>
        <mxCell id="lDHJfgaJlsZgmha4-692-62" value="数据地图" style="rounded=0;whiteSpace=wrap;fillColor=#FFA914;strokeColor=none;fontColor=#FFFFFF;fontStyle=1;html=1;" vertex="1" parent="lDHJfgaJlsZgmha4-692-106">
          <mxGeometry x="720.8176223776225" y="185.03448275862047" width="106.18181818181819" height="29.79310344827586" as="geometry" />
        </mxCell>
        <mxCell id="lDHJfgaJlsZgmha4-692-63" value="DQC质量" style="rounded=0;whiteSpace=wrap;fillColor=#FFA914;strokeColor=none;fontColor=#FFFFFF;fontStyle=1;html=1;" vertex="1" parent="lDHJfgaJlsZgmha4-692-106">
          <mxGeometry x="720.3071328671329" y="240.89655172413813" width="106.18181818181819" height="29.79310344827586" as="geometry" />
        </mxCell>
        <mxCell id="lDHJfgaJlsZgmha4-692-64" value="任务调度" style="rounded=0;whiteSpace=wrap;html=1;fillColor=#FFA914;strokeColor=none;fontColor=#FFFFFF;" vertex="1" parent="lDHJfgaJlsZgmha4-692-106">
          <mxGeometry x="720.3071328671329" y="129.17241379310326" width="106.18181818181819" height="29.79310344827586" as="geometry" />
        </mxCell>
        <mxCell id="lDHJfgaJlsZgmha4-692-78" value="数据开发" style="rounded=0;whiteSpace=wrap;html=1;fillColor=#FFA914;strokeColor=none;fontColor=#FFFFFF;" vertex="1" parent="lDHJfgaJlsZgmha4-692-106">
          <mxGeometry x="720.3071328671329" y="75.17241379310326" width="106.18181818181819" height="29.79310344827586" as="geometry" />
        </mxCell>
        <mxCell id="lDHJfgaJlsZgmha4-692-79" value="任务调度" style="rounded=0;whiteSpace=wrap;html=1;fillColor=#FFA914;strokeColor=none;fontColor=#FFFFFF;" vertex="1" parent="lDHJfgaJlsZgmha4-692-106">
          <mxGeometry x="720.3071328671329" y="129.17241379310326" width="106.18181818181819" height="29.79310344827586" as="geometry" />
        </mxCell>
        <mxCell id="lDHJfgaJlsZgmha4-692-80" value="数据开发" style="rounded=0;whiteSpace=wrap;fillColor=#FFA914;strokeColor=none;fontColor=#FFFFFF;fontStyle=1;html=1;" vertex="1" parent="lDHJfgaJlsZgmha4-692-106">
          <mxGeometry x="720.3071328671329" y="75.17241379310326" width="106.18181818181819" height="29.79310344827586" as="geometry" />
        </mxCell>
        <mxCell id="lDHJfgaJlsZgmha4-692-81" value="任务调度" style="rounded=0;whiteSpace=wrap;fillColor=#FFA914;strokeColor=none;fontColor=#FFFFFF;fontStyle=1;html=1;" vertex="1" parent="lDHJfgaJlsZgmha4-692-106">
          <mxGeometry x="720.3071328671329" y="129.17241379310326" width="106.18181818181819" height="29.79310344827586" as="geometry" />
        </mxCell>
        <mxCell id="lDHJfgaJlsZgmha4-692-99" style="edgeStyle=orthogonalEdgeStyle;rounded=0;orthogonalLoop=1;jettySize=auto;html=1;exitX=1;exitY=0.5;exitDx=0;exitDy=0;entryX=-0.005;entryY=0.205;entryDx=0;entryDy=0;entryPerimeter=0;" edge="1" parent="lDHJfgaJlsZgmha4-692-106" source="lDHJfgaJlsZgmha4-692-87" target="lDHJfgaJlsZgmha4-692-40">
          <mxGeometry relative="1" as="geometry">
            <mxPoint x="120" y="89.07000000000016" as="targetPoint" />
            <Array as="points" />
          </mxGeometry>
        </mxCell>
        <mxCell id="lDHJfgaJlsZgmha4-692-87" value="&lt;span style=&quot;font-size: 20px;&quot;&gt;业务数据&lt;/span&gt;" style="rounded=1;whiteSpace=wrap;html=1;arcSize=13;fillColor=#1ba1e2;strokeColor=#006EAF;fontStyle=1;fontColor=#ffffff;" vertex="1" parent="lDHJfgaJlsZgmha4-692-106">
          <mxGeometry y="4.547473508864641e-13" width="100" height="119.07" as="geometry" />
        </mxCell>
        <mxCell id="lDHJfgaJlsZgmha4-692-100" style="edgeStyle=orthogonalEdgeStyle;rounded=0;orthogonalLoop=1;jettySize=auto;html=1;exitX=1;exitY=0.5;exitDx=0;exitDy=0;entryX=-0.001;entryY=0.622;entryDx=0;entryDy=0;entryPerimeter=0;" edge="1" parent="lDHJfgaJlsZgmha4-692-106" source="lDHJfgaJlsZgmha4-692-88" target="lDHJfgaJlsZgmha4-692-40">
          <mxGeometry relative="1" as="geometry">
            <mxPoint x="123" y="210" as="targetPoint" />
          </mxGeometry>
        </mxCell>
        <mxCell id="lDHJfgaJlsZgmha4-692-88" value="&lt;span style=&quot;font-size: 20px;&quot;&gt;日志数据&lt;/span&gt;" style="rounded=1;whiteSpace=wrap;html=1;arcSize=13;fillColor=#1ba1e2;strokeColor=#006EAF;fontStyle=1;fontColor=#ffffff;" vertex="1" parent="lDHJfgaJlsZgmha4-692-106">
          <mxGeometry y="140" width="100" height="80" as="geometry" />
        </mxCell>
        <mxCell id="lDHJfgaJlsZgmha4-692-98" value="" style="shape=flexArrow;endArrow=classic;html=1;rounded=0;fillColor=#f5f5f5;gradientColor=#b3b3b3;strokeColor=#666666;" edge="1" parent="lDHJfgaJlsZgmha4-692-106">
          <mxGeometry width="50" height="50" relative="1" as="geometry">
            <mxPoint x="259" y="150" as="sourcePoint" />
            <mxPoint x="319" y="150" as="targetPoint" />
          </mxGeometry>
        </mxCell>
        <mxCell id="lDHJfgaJlsZgmha4-692-105" value="" style="shape=image;verticalLabelPosition=bottom;labelBackgroundColor=default;verticalAlign=top;aspect=fixed;imageAspect=0;image=data:image/png,iVBORw0KGgoAAAANSUhEUgAAAOEAAADhCAYAAAA+s9J6AAAAAXNSR0IArs4c6QAADIFJREFUeF7tnNFyGzkMBK3//+hcOWdVFEUSAWJAgMu+V5MgMDO9XMkX3774DwVQoFSBW+npHI4CKPAFhIQABYoVAMJiAzgeBYCQDKBAsQJAWGwAx6MAEJIBFChWAAiLDeB4FABCMoACxQoAYbEBHI8CQEgGUKBYASAsNoDjUQAIyQAKFCsAhMUGcDwKACEZQIFiBYCw2ACORwEgJAMoUKwAEBYbwPEoAIRkAAWKFQDCYgM4HgWAkAygQLECQFhsAMejABCSARQoVgAIiw3IOv7Xr1+/rLVvtxs5sIqVsA7xE0StKukB712PALnePSBcr7n8RAV8z00Bo9ymtwWBcJ3W8pMy4ANGuU3DgkA4lKjnghUA3ifnVszNABDm6ptSfSWAjwMAY4qd/Bn8HFnzqlYByK2Y5yk3YZ628srVAAKi3NLfBYEwR1d51S4A/g4Nv1eU+guEUjlzinUCkNtQ7zEQ6jWVV+wIITeizmYg1GmZUqkrgECosxsIdVqmVOoMISBqLAdCjY4pVboDCIQa24FQo2NKlR0gBMS49UAY1zCtAhCmSduqMBC2suNPM7sAyE0YDxAQxjVMqQCEKbK2LAqELW35+toJQm7DWIiAMKZf2m4gTJO2XWEgbGfJ/w0BYVNjEtoCwgRRFSWBUKHiHjWAsKlPQNjUmIS2gDBBVEVJIFSouEcNIGzqExA2NSahLSBMEFVREggVKu5RAwib+rQThPxL+1iIgDCmX9puIEyTtl1hIGxnyZ+GdgGRmzAWIiCM6Ze6GwhT5W1THAjbWPFvIztAyC0YDxAQxjVMrdAdRCCM2w+EcQ1TK3SGEAA11gOhRsfUKl1BBEKN7UCo0TG1ChCmylteHAjLLbA10BFEbkKbd6NVQDhSqNHPAbGRGcJWgFAo5opSgLhC5bVnAOFavSWnAaJExjZFgLCNFb5GuoHI50Off4+rgXBeu/KdgFhugaQBIJTIWFOkG4TfKnAj+rMAhH7N2uwAwjZWhBoBwpB8tZs7Qsht6M8EEPo1a7MjCuHjq2O01rMovJbaY9IeQms4TjPdqsunKDxrpqj517d+t1v7fNlRyVvZUqRoGE4AMqrRq9dGRU0g9MPaBkJ1AO5SXBXIqF7vdInW5bV0UwjVxp8QhKhmnx5O0don6O9H7f2O0ptQbfZImKvcigrdgHCUlnU/L4NQEaQZma4AokK7kQ6KM/h8aEtoCYRqg22j/lk1CqC33ur1Cv0sGijOAcRxOpZDqDZ2POLrFZYQztbO3hfV0Dp79JxXOljPztawU/2lEGaYGhFz10BEdfTMHT2LL2nGCQXCsUatViig8ED4PbziTF5LG3w7qjZSRYY3kKpzZ+sodJyZWXEuIL75aDQbBs8+tYGesy1rZ0JpqZuxRqHlzLyKc4EQCN8yMRPKDMAsNaMwRGaNns3nQyAEQsE/ugVEy6PStyb9ixm1ab7x7KsjN4T9lNhKhZaKORV98Gr6RwEg/NFCEc4YYuPdivAr5lT0AYRA+E/iFeEcYxRbEQ2/csZoL3w+XASh2qhYhMe7lSEdn+ZfEdVTPV+0H0D8X4HU11G1Sf7Y+naoQ+o7/fNqhZbq+RQ98VoKhH8lXx3Sq0P4PR8gxl3mJnzQEAjnAgWIc7rddwHhIRBmP2AAcR5EIATC+fQ87ATCeRmBcAMIFQHPvgn5fAiE8woAoUS7exHFA+O0b0y5CQ+AcMUtCITzzzIgBML59LzZyW3okzQVwozPCb7x7KtX3hb2rjS/h6uYDRDtLgPhj1YVQbXYpAhz1WyK3k/4fAiEQGh5FkytAUKbbOkQ7vBKWnVTWCyKBrl6tmj/zxpVz2PxzLsGCAX/2twrumd9NMQdQhud4eogAmFjCBXhBULPI69m7RIIO7+SdgjpO+uvAmGG/51986K8DMIMI7zD7vZacyUIq/3vDC0QRklO3B+FsGPwojMp5O6my1IIq5+GO92EirB2Cxv+v36ELIcQI2zP8qtC2M3/736qH1YlEHYyotqAE76UeTWj4iFje5zZVlXmoAxCQPwcjmhIK0NliX10PssZ3jVVmpVCeBepgyFVBmTdhN3m2eE2rHo1bQFhh1uxU2gVD6VO83y6kRSzem+80frV2rWB8FGYKmNWi591C1Y90Ufhzpx39ux3+1ZmoSWEVUCuFD77dugyiwWOqofuqLdVGraHcCSU+lV2lfCZEHaYweJbp+8EXvW7SsdLQHg1EKM3w6rweEDb6VX0sdcVWgLhi3SsED4zlJX9e8GMPnC853nXr9DyMhBe5TZUhHJFcLxhfrVeMauij1GNbD2B8I0D2cJzE2r+iNUIIMXPs7NwKQivcBtGb4fswChC3f0LmecZszW9HIQ7gxgF8Hv27MCoIFTMqurFUidTVyAcOJAp/vPRimCu7NcS3szX7sj53r2Zul4Swl1vQyD0orFuPRBOaK0I9P3YTAMeR4v2vKrPCTv+2RKdVdGDp0amtpe9CXe8DaPBzAyKJ7CWtdFZLWco12Rqe2kIdwJREcrMoCgDrfZF3durepnaAqHDwUwjgNBhRMHSTO8vD6H6qZtlBhAWkOU4Msv37xaA0GHEb8FutxTNohBm9eWUx7w8Oq/5INHCTH1TAiWaW1pGabraEEVv6p6k4r8oppg5u8fH+pn6HgNh59dSRSAzQ5IRdsXMGX29q5mpLxBOOqk0RRFIZT+Tkri3KeZ2HzqxIVvboyDsehtGw5gdkoncmrZE5zYdIliUrS8QBkxSmRMNo6qPgBRTW6NzTx06sSlb3+Mg7HYbKoKYHZKJ3Jq3KOY3HzaxcIW2R0LYCURFCFcEZSK/pi2K+U0HTS5aoS0QTpqj+vpaEcIVQRHI9LaEQoOM/lbpeiyEXW7DaABXBSUj5PeaUQ2yelulLRCKHJw1LBrA2XNFY8vKRHWQNfJTaKWuR0NYfRsqgrcyLOqgP9dT6KHocbWmx0NYCaIidKsDowj5uxoKPRT9rdYUCL+0f3rPY6AidJ7zFAHNrqHQJNJjhZ5A+OOY0nyrkdEzredEQlmxN6rLbM9VegJhEYSKoFWFZjbk3n0KjSxnVusIhA8uKU0fGas4a3SGJYDd1yh0+jRjBw2B8MkhpemfDFac0yFAqyBW6PXYayftgHBTCDuFaBWIim+yO+oGhC8SpHzqvjM9ekbHMK2E8X7WSMcddALCAghHwbGEeYdwWeZgzSF/6GnGaAUoM+da9wChVan+67gJP3jUGUQg7A+XtUMg3BBCALTGe491QDjwqettCIh7AGbpEgg3hfC7bUC0RLz/GiA0eNT1Nry3DowGExsvAUKjOYBoFIplbgWA0ChZdwh5PTUa2XAZEDpMAUSHWCw1KwCERql2AJDPiEYzmy0DQoMhOwEIiAZDmy0BQoMhQGgQiSXTCgDhxr8nHLnOry5GCvX4ORBeGEK+Me0B2agLIPyg0I6voc/jcBuOEKj/ORC+8eAKAPIlTT1glg6AEAgtOWFNogJAeACEfDZMJEhQGghfiHilV1FeSQWUJJcAQiBMjhjlRwoA4SEQ8ko6QqHu50D4pP0VX0V5Ja0DzHIyEAKhJSesSVQACIEwMV6UtigAhEBoyQlrEhUAQiBMjBelLQoAIRBacsKaRAWAEAgT40VpiwJACISWnLAmUQEgBMLEeFHaogAQAqElJ6xJVAAIgTAxXpS2KACEQGjJCWsSFQDCF+Je9f8f5U9dJJIUKA2Eh0AIgAFKkrcCIRAmR4zyIwWAEAhHGeHnyQoA4RuBr/a5kNfRZJIC5YHwAAgBMEDIgq1A+EHkq9yGQLiApMARQHhxCAEwQMeirUA4EHr32xAIF5EUOAYILwwhAAbIWLgVCA1i73gbAqDB2CZLgNBoxG4gAqHR2AbLgNBhwi4gAqDD1AZLgdBhwg4QAqDD0CZLgdBpRGcQAdBpZpPlQDhpRDcYAXDSyAbbgDBgQgcQgS9gYJOtQBg0ohJEAAya12Q7EIqMWAkj8IlMa1IGCMVGZMMIgGLDGpQDwiQTlDACXpJJTcoC4SIjvFAC3iJjGhwDhA1MoIWzFQDCs/1n+gYKAGEDE2jhbAWA8Gz/mb6BAkDYwARaOFsBIDzbf6ZvoAAQNjCBFs5WAAjP9p/pGygAhA1MoIWzFQDCs/1n+gYKAGEDE2jhbAWA8Gz/mb6BAkDYwARaOFsBIDzbf6ZvoAAQNjCBFs5WAAjP9p/pGygAhA1MoIWzFQDCs/1n+gYKAGEDE2jhbAWA8Gz/mb6BAkDYwARaOFsBIDzbf6ZvoAAQNjCBFs5W4D+ifEUtwKDdOwAAAABJRU5ErkJggg==;" vertex="1" parent="lDHJfgaJlsZgmha4-692-106">
          <mxGeometry x="354.74" y="56.55000000000018" width="52.52" height="52.52" as="geometry" />
        </mxCell>
        <mxCell id="lDHJfgaJlsZgmha4-692-114" value="" style="shape=image;verticalLabelPosition=bottom;labelBackgroundColor=default;verticalAlign=top;aspect=fixed;imageAspect=0;image=data:image/png,iVBORw0KGgoAAAANSUhEUgAAAMgAAADICAMAAACahl6sAAAAG1BMVEX/////agD/gyX/9/L/v5D/1bb/6Nf/qWr/l0prFfVXAAAF7ElEQVR4nO2d6WLkIAiAO17x/Z94J5m2wQM8kih2+f52DwmiXNKvL0EQBEEQBEEQBEEQBEGYjXZm8+r1RvnNOj17Pb0441+AzbjZK+rCbeoVobYFlWJjKT6i2NnrasRtWTn2DbaUUrTH5HhLspClaFQfa+mE0schyewFVqLzdg5YxOJtcuzGqDXMJNxYfr8GXSTcEpvLBSv+2UU6OJCXUAlcsAUHVHCUGf4nl/PYcqFO/CyVaOdsHWC1Jv5HPP6zMTi7u+N1UIYAzuUJ5q5N6sZWka5Vn/+QHy1GxhmvJOfonipRY8XQtuBtNAoCjuaxcpDOX4HswTRHEDyoqCF76U0RxPVax7cgXLaW6zePD5mrwpxiDpPjkn0c+NQNOb/NuOM3lkMpXwXYj8neAhfisJvdRWJ4Y52uwZySxDcicFGGZVN0aOimPkvoUIdKnxYyLgNhoBht0QP8q4EkgX9/73JRgvRB49fT8BtsPxFJGFhlzoFngOkD1fqfhsfEblxv79kHe3WUqWt0e9QQJx8i777n2/SCR3lVlNIow+SAO6snTVC6S8dFh/Cc7Pl6pCRqYOKBiLtj9NuQrU2WRkgyMs0ITITaWdr+ho9qC4WBF3ykj4fXHgAWQWwDE6cU4Q913nkeXH0DgqB/Jv3mKlSKTZUy0jwOKgTJRl1RdLtvvd8/pvyEWmhZEORcSs64vT59MKekWxYEO5VyebfduX9ytQRFQfBSDq8aTkkQorY2zK+toiQIVVt7UCVVEWoAvEcyOIPL8VTl40rOs49nonFdLkzeziOCTJDjGSd9ghzPlHAmyCGCkIw+snYesZEZxv7M8Xu5NtDMUxX0tx/dzqlHlfuxp/TMqqfhVGN+wxO+Fq8uk/OL5zc84f2yao8DtRHk++IqYaWQikof5v+yiqtsTaNFPtad0yqDUNfDk8vADc/20MD9T+yUtAVTpZnTiQSlEfoI0kGq0bMSI/zOxTyt27u4Xkfpmll/tQ1suOJO0J/GOmZPQ+L0IavVaWvq2JIOM15naXcDHC/vT1MZKBpe3l9/h8+0xtw83fuKlz76kw/M9NEtCCsf9qAnYlcbPzk6siiqoTVrIK1JbG94uX6A6pvdGG4ek/BfMbHUfCPv2ONjS9yuyzZAKxDLq6aSOOjiVU+vJ72PxjZe3UU2rGEVedWBTAtYTieon7OYJHjP6GIWT8T9a6mECmoGqqT2jS0OIcc4laD9tzcx6qnU491Bo8z98su1EqPSRo83PowS5Gk5RCOt/Bkbufb+uYJhTsrT3UEDRze4+sQWAiXIUtE7odRx79fugPAOllIIUb9bYpYRAIus2JWDiuQbzdaTI3+Kcysz1qGjt3rcWpoacDBEU4tO8zzQP4/SFeO6VgPzRNCuFta1D7dVDvjaOR4+8iwl9iUfZrxGpelPoqgt80q9jzvKdZeikTueCTt7z1vdqzG7v3btWfCw4dqhfVGOS7K43Hv2XrXckkXp+5L5IHvrPBL7OwED2puT7575cFsWpbVd/PaayttrbbgQSVEa9jfdE9r5VqbeQ3H7vFKzoUe2qm0bL/W2Dimq6HT00knlCVYaJzgyJHOYMFvZWOKX58pPm+a04+KY8GcRRVthNF/rg86MaDlEobXCauLZ76IwsyWMhdUMuhNsh732XyiSu6aZTQWEK8NEOR7yGGtdMMCR2ZzG4P/PuH9AGNU1OXNW55olHxrnIWeZTksbd3QekNNlJ+a/cVvJQ8/7HT7cO6BpWgw9gXmuIHDqXBF6JvZkQb6OkQWVGmG8tQ60q1NLLhY8z18uxS5tv1+3UnsrOX7BmChGvXd6D8ISDx2qJDESMLqAWyu3dvGvwQAHG+GiLFC2gxdnGJ1DR36BeleQz4LrhbXhJeqPQQjjz9/RE7zi56+QKEJEfmsSN1PPU74wuVwiBYrpzSU21k6pvLTGxtohJVnqdztSUdgCVwgA1clyr2eQ1qhl7ByQiYz9aur4EIWThUwra3ZP/+Pmq+1PNOIIgiAIgiAIgiAIgiAw4R/KfzlBirhIxwAAAABJRU5ErkJggg==;" vertex="1" parent="1">
          <mxGeometry x="228" y="2613" width="100" height="100" as="geometry" />
        </mxCell>
        <mxCell id="lDHJfgaJlsZgmha4-692-118" value="" style="group;movable=1;resizable=1;rotatable=1;deletable=1;editable=1;locked=0;connectable=1;" vertex="1" connectable="0" parent="1">
          <mxGeometry x="328" y="2800" width="120" height="290" as="geometry" />
        </mxCell>
        <mxCell id="lDHJfgaJlsZgmha4-692-123" value="" style="group" vertex="1" connectable="0" parent="lDHJfgaJlsZgmha4-692-118">
          <mxGeometry width="120" height="290" as="geometry" />
        </mxCell>
        <mxCell id="lDHJfgaJlsZgmha4-692-111" value="&lt;font style=&quot;font-size: 15px;&quot;&gt;&lt;br&gt;&lt;br&gt;&lt;br&gt;MaxCompute&lt;br&gt;大数据离线计算&lt;/font&gt;" style="rounded=1;whiteSpace=wrap;html=1;fontStyle=1;fontColor=#FF7E08;" vertex="1" parent="lDHJfgaJlsZgmha4-692-123">
          <mxGeometry width="120" height="290" as="geometry" />
        </mxCell>
        <mxCell id="lDHJfgaJlsZgmha4-692-109" value="" style="shape=image;verticalLabelPosition=bottom;labelBackgroundColor=default;verticalAlign=top;aspect=fixed;imageAspect=0;image=data:image/png,iVBORw0KGgoAAAANSUhEUgAAAMgAAADICAMAAACahl6sAAAABGdBTUEAALGPC/xhBQAAACBjSFJNAAB6JgAAgIQAAPoAAACA6AAAdTAAAOpgAAA6mAAAF3CculE8AAAAolBMVEX////09PPKtabOu67TwrbbzcPazsbe1tHj39zq5+Xs6ef39vbZgELbiE3ekVrSj2DGlHHLnX3NooPMrZbFr5/8/PzMsZ7bhUnXjlvpiUfKm3rOkWbnhD3LpYrSuqnKrZnflF/djVXEkGzao3zUtZ/cp4LdnnL/agD/bgf/dRL/ehv/gCb2gzDXejjmfTPufzDufCv1dhz1cBP/hS//hjH///+ZQaAvAAAAJ3RSTlMAAAAAAAAAAAAAAAAAAAAAAAAAAAAAAAAAAAAAAAAAAAAAAAAAAAAi/HzzAAAAAWJLR0QAiAUdSAAAAAd0SU1FB+cIDhYwIOu5dJEAAAWQSURBVHja7Z3reqI6FECLBAIociuXgqjYOSPgEWo97/9sB7R2OkMgClSCs9fPmSY76wtCEsLO0xMAAAAAAAAAAMBDw014HiFBEDHGkiQr3HToFrVE2laIkyTd/bufqXNNN0zrmRewxNnf3hIbO3q/ImSSNHM93XSQKPcvxfH6S1wE6VDz1SJfSfee7whSP0IcH+SXijtU00rkcg3uXN0RuQ7RbdFYxF9qHEjkg50Xim1uEdzSS/6oaliRU+dkPrpJhnNe4mo1w4ucZNzVtZeZoMXEKtgQKV1URL8DTK23uvLMiBQcwuZumYbv9YVZEimeOFZDPOfQVPTezxEae6kmmvzSXJCtHik7RSAGE94p5ZgT2caYEAvFtGKsXVoFb9U2KbT+YLFHtltUCeXTC7EooldCrccp4lVCWeMUqT5MuAO1EIMiB8LzHSe0UuyJxMQHCab1CXMi7+QH4hMXjEvkRa6Nh93xiLwtGyOKUf0DniWR3KGOM2SzbkLCjEjsCdeFxQbRhQ2RxFvesqIiW1HldsyASOYLtw9dbTFU06+1DDv6TV581GFxS+Z992IzWI+kru7gDtE/4UTHj/Lk/iJJHvndFhn75iaReLdQNWOFMEsGV4nESXrcq2vdtCZIlBhs/i+U+Yl1sNF13zDNMFw9T8pXP1iS7/BSBAAAAAD+Ol6X3eu4P/hH5Z+i7Zs1tg0iONpGBJFi1Pzay6j/PkyXWdFkskhBHkotKr07tqCdZ+K1IqWLwXi/cLz2uZ7QJFJwCHhl6ObWSKDft5VQRE4dEyzZkrGxE+R/Lh9eIXKa9asmklvE7BsZhVpOXAK9UuS8ApBpJj/M/NmW0Mr3soYXHreIXHy0uzVfwWgS+vN9SmtTK5GtS4iplLNupeus2+ZkLKKJZeqaut9RXzh9h4jw8X/xeaOlG80DPST8HTcpeX62wtAsMHx9E6wjdbbPdmlCfcF/R5Gv7Ah/920vQ0EEREAERDqLHB9F5GF65GFEHubSAhEQAREQAREQAREQAREQAREQAREQAREQAREQAREQAREQAREQ+dtE/nsUkYfpERBhTeRhfiMPIwKXFoiACIiACIiAyNhFPraUq9F6syFtKZ/yPD/52Fa+KreVl5vKtXnkzvZ5p03lvW3y55GIe/i0fqpIWDht81+72e4Gr75EvompLPKW782OVKWbROKjG4QDfQojC47h5XFnkaMXop5SIHfzQaF3bCmSRqHAVkIMTrC89DaRg+aw8I0YCcnRDleKLEzGP6h8wmZGFckttj4+rOOSBewBPjp+wmWiaJJI7oztM3AlPFRF/kEtahqc6ZU53AAAAAAA6JNzMr31er3ZlOn0fOOSTk/AUvcP++8IbTkoTneLmerp5ooXsMKw143rWmmuBt+ScVIRHWP+834inySZZ0x68SnmycHinE6iy3JQx5XGQ2Tw7XMa2djSvq5cDChy7p2Z2eLYJByqf6b1GFqkJF6EN0xibSEgpZBnQeR0nQXidTH1mkT4rIiULiZ1iQTVH2/DkEiZqLzxx4/yhrJMiRQqQe1dWVEbSzImUlxgNeslIuWQCOZEtluTFIt6bAeDIiST6RutEIsicfUnTz/ahkWRrV8JNR+nyLwSKqCWYVJEr4TC4xQh3IHNMYpkpGA/xyeSkMcpVvNbbfZE3uuGwThrKsacSFY/brSthjP4GBN5txoXW7iwdsTFlMjBpK5I2MsF8yKz5XWTd8lneKobuze9QRdfKy4siOSvLQ4cwuHst/vxwCLJzGh/atIU+b8SNw8mUiYc7iF/8uc63d1Fyn1i5kTsdU8JJ1gbv0P560WSNJ/N9XCCMJObYogicZKku2zmRt7GN0OHFzDbJyaVlImL+fKUJEHEGEuSrHBj2/gCAAAAAAAAAABQw//v7EkMbOyTegAAACV0RVh0ZGF0ZTpjcmVhdGUAMjAyMy0wOC0xNFQyMjo0ODozMiswODowMJFKLUYAAAAldEVYdGRhdGU6bW9kaWZ5ADIwMjMtMDgtMTRUMjI6NDg6MzIrMDg6MDDgF5X6AAAAAElFTkSuQmCC;" vertex="1" parent="lDHJfgaJlsZgmha4-692-123">
          <mxGeometry x="20" y="70" width="80" height="80" as="geometry" />
        </mxCell>
        <mxCell id="lDHJfgaJlsZgmha4-692-120" value="" style="rounded=1;whiteSpace=wrap;html=1;" vertex="1" parent="1">
          <mxGeometry x="100" y="3960" width="120" height="60" as="geometry" />
        </mxCell>
        <mxCell id="lDHJfgaJlsZgmha4-692-121" value="Data Streaming" style="shape=cylinder3;whiteSpace=wrap;html=1;boundedLbl=1;backgroundOutline=1;size=15;direction=south;fontSize=16;fontStyle=1" vertex="1" parent="1">
          <mxGeometry x="281" y="4320" width="404" height="60" as="geometry" />
        </mxCell>
        <mxCell id="lDHJfgaJlsZgmha4-692-130" value="" style="group" vertex="1" connectable="0" parent="1">
          <mxGeometry x="415" y="3940" width="120" height="190" as="geometry" />
        </mxCell>
        <mxCell id="lDHJfgaJlsZgmha4-692-125" value="&lt;font style=&quot;font-size: 15px;&quot;&gt;&lt;br&gt;&lt;br&gt;&lt;br&gt;&lt;br&gt;&lt;br&gt;&lt;br&gt;&lt;br&gt;MaxCompute&lt;br&gt;大数据离线计算&lt;/font&gt;" style="rounded=1;whiteSpace=wrap;html=1;fontStyle=1;fontColor=#FF7E08;" vertex="1" parent="lDHJfgaJlsZgmha4-692-130">
          <mxGeometry width="120" height="190" as="geometry" />
        </mxCell>
        <mxCell id="lDHJfgaJlsZgmha4-692-126" value="" style="shape=image;verticalLabelPosition=bottom;labelBackgroundColor=default;verticalAlign=top;aspect=fixed;imageAspect=0;image=data:image/png,iVBORw0KGgoAAAANSUhEUgAAAMgAAADICAMAAACahl6sAAAABGdBTUEAALGPC/xhBQAAACBjSFJNAAB6JgAAgIQAAPoAAACA6AAAdTAAAOpgAAA6mAAAF3CculE8AAAAolBMVEX////09PPKtabOu67TwrbbzcPazsbe1tHj39zq5+Xs6ef39vbZgELbiE3ekVrSj2DGlHHLnX3NooPMrZbFr5/8/PzMsZ7bhUnXjlvpiUfKm3rOkWbnhD3LpYrSuqnKrZnflF/djVXEkGzao3zUtZ/cp4LdnnL/agD/bgf/dRL/ehv/gCb2gzDXejjmfTPufzDufCv1dhz1cBP/hS//hjH///+ZQaAvAAAAJ3RSTlMAAAAAAAAAAAAAAAAAAAAAAAAAAAAAAAAAAAAAAAAAAAAAAAAAAAAi/HzzAAAAAWJLR0QAiAUdSAAAAAd0SU1FB+cIDhYwIOu5dJEAAAWQSURBVHja7Z3reqI6FECLBAIociuXgqjYOSPgEWo97/9sB7R2OkMgClSCs9fPmSY76wtCEsLO0xMAAAAAAAAAAMBDw014HiFBEDHGkiQr3HToFrVE2laIkyTd/bufqXNNN0zrmRewxNnf3hIbO3q/ImSSNHM93XSQKPcvxfH6S1wE6VDz1SJfSfee7whSP0IcH+SXijtU00rkcg3uXN0RuQ7RbdFYxF9qHEjkg50Xim1uEdzSS/6oaliRU+dkPrpJhnNe4mo1w4ucZNzVtZeZoMXEKtgQKV1URL8DTK23uvLMiBQcwuZumYbv9YVZEimeOFZDPOfQVPTezxEae6kmmvzSXJCtHik7RSAGE94p5ZgT2caYEAvFtGKsXVoFb9U2KbT+YLFHtltUCeXTC7EooldCrccp4lVCWeMUqT5MuAO1EIMiB8LzHSe0UuyJxMQHCab1CXMi7+QH4hMXjEvkRa6Nh93xiLwtGyOKUf0DniWR3KGOM2SzbkLCjEjsCdeFxQbRhQ2RxFvesqIiW1HldsyASOYLtw9dbTFU06+1DDv6TV581GFxS+Z992IzWI+kru7gDtE/4UTHj/Lk/iJJHvndFhn75iaReLdQNWOFMEsGV4nESXrcq2vdtCZIlBhs/i+U+Yl1sNF13zDNMFw9T8pXP1iS7/BSBAAAAAD+Ol6X3eu4P/hH5Z+i7Zs1tg0iONpGBJFi1Pzay6j/PkyXWdFkskhBHkotKr07tqCdZ+K1IqWLwXi/cLz2uZ7QJFJwCHhl6ObWSKDft5VQRE4dEyzZkrGxE+R/Lh9eIXKa9asmklvE7BsZhVpOXAK9UuS8ApBpJj/M/NmW0Mr3soYXHreIXHy0uzVfwWgS+vN9SmtTK5GtS4iplLNupeus2+ZkLKKJZeqaut9RXzh9h4jw8X/xeaOlG80DPST8HTcpeX62wtAsMHx9E6wjdbbPdmlCfcF/R5Gv7Ah/920vQ0EEREAERDqLHB9F5GF65GFEHubSAhEQAREQAREQAREQAREQAREQAREQAREQAREQAREQAREQAREQ+dtE/nsUkYfpERBhTeRhfiMPIwKXFoiACIiACIiAyNhFPraUq9F6syFtKZ/yPD/52Fa+KreVl5vKtXnkzvZ5p03lvW3y55GIe/i0fqpIWDht81+72e4Gr75EvompLPKW782OVKWbROKjG4QDfQojC47h5XFnkaMXop5SIHfzQaF3bCmSRqHAVkIMTrC89DaRg+aw8I0YCcnRDleKLEzGP6h8wmZGFckttj4+rOOSBewBPjp+wmWiaJJI7oztM3AlPFRF/kEtahqc6ZU53AAAAAAA6JNzMr31er3ZlOn0fOOSTk/AUvcP++8IbTkoTneLmerp5ooXsMKw143rWmmuBt+ScVIRHWP+834inySZZ0x68SnmycHinE6iy3JQx5XGQ2Tw7XMa2djSvq5cDChy7p2Z2eLYJByqf6b1GFqkJF6EN0xibSEgpZBnQeR0nQXidTH1mkT4rIiULiZ1iQTVH2/DkEiZqLzxx4/yhrJMiRQqQe1dWVEbSzImUlxgNeslIuWQCOZEtluTFIt6bAeDIiST6RutEIsicfUnTz/ahkWRrV8JNR+nyLwSKqCWYVJEr4TC4xQh3IHNMYpkpGA/xyeSkMcpVvNbbfZE3uuGwThrKsacSFY/brSthjP4GBN5txoXW7iwdsTFlMjBpK5I2MsF8yKz5XWTd8lneKobuze9QRdfKy4siOSvLQ4cwuHst/vxwCLJzGh/atIU+b8SNw8mUiYc7iF/8uc63d1Fyn1i5kTsdU8JJ1gbv0P560WSNJ/N9XCCMJObYogicZKku2zmRt7GN0OHFzDbJyaVlImL+fKUJEHEGEuSrHBj2/gCAAAAAAAAAABQw//v7EkMbOyTegAAACV0RVh0ZGF0ZTpjcmVhdGUAMjAyMy0wOC0xNFQyMjo0ODozMiswODowMJFKLUYAAAAldEVYdGRhdGU6bW9kaWZ5ADIwMjMtMDgtMTRUMjI6NDg6MzIrMDg6MDDgF5X6AAAAAElFTkSuQmCC;" vertex="1" parent="lDHJfgaJlsZgmha4-692-130">
          <mxGeometry x="20" y="35" width="80" height="80" as="geometry" />
        </mxCell>
        <mxCell id="lDHJfgaJlsZgmha4-692-133" value="" style="shape=image;verticalLabelPosition=bottom;labelBackgroundColor=default;verticalAlign=top;aspect=fixed;imageAspect=0;image=data:image/png,iVBORw0KGgoAAAANSUhEUgAAAMgAAADICAMAAACahl6sAAAAG1BMVEX/////agD/gyX/9/L/v5D/1bb/6Nf/qWr/l0prFfVXAAAF7ElEQVR4nO2d6WLkIAiAO17x/Z94J5m2wQM8kih2+f52DwmiXNKvL0EQBEEQBEEQBEEQBEGYjXZm8+r1RvnNOj17Pb0441+AzbjZK+rCbeoVobYFlWJjKT6i2NnrasRtWTn2DbaUUrTH5HhLspClaFQfa+mE0schyewFVqLzdg5YxOJtcuzGqDXMJNxYfr8GXSTcEpvLBSv+2UU6OJCXUAlcsAUHVHCUGf4nl/PYcqFO/CyVaOdsHWC1Jv5HPP6zMTi7u+N1UIYAzuUJ5q5N6sZWka5Vn/+QHy1GxhmvJOfonipRY8XQtuBtNAoCjuaxcpDOX4HswTRHEDyoqCF76U0RxPVax7cgXLaW6zePD5mrwpxiDpPjkn0c+NQNOb/NuOM3lkMpXwXYj8neAhfisJvdRWJ4Y52uwZySxDcicFGGZVN0aOimPkvoUIdKnxYyLgNhoBht0QP8q4EkgX9/73JRgvRB49fT8BtsPxFJGFhlzoFngOkD1fqfhsfEblxv79kHe3WUqWt0e9QQJx8i777n2/SCR3lVlNIow+SAO6snTVC6S8dFh/Cc7Pl6pCRqYOKBiLtj9NuQrU2WRkgyMs0ITITaWdr+ho9qC4WBF3ykj4fXHgAWQWwDE6cU4Q913nkeXH0DgqB/Jv3mKlSKTZUy0jwOKgTJRl1RdLtvvd8/pvyEWmhZEORcSs64vT59MKekWxYEO5VyebfduX9ytQRFQfBSDq8aTkkQorY2zK+toiQIVVt7UCVVEWoAvEcyOIPL8VTl40rOs49nonFdLkzeziOCTJDjGSd9ghzPlHAmyCGCkIw+snYesZEZxv7M8Xu5NtDMUxX0tx/dzqlHlfuxp/TMqqfhVGN+wxO+Fq8uk/OL5zc84f2yao8DtRHk++IqYaWQikof5v+yiqtsTaNFPtad0yqDUNfDk8vADc/20MD9T+yUtAVTpZnTiQSlEfoI0kGq0bMSI/zOxTyt27u4Xkfpmll/tQ1suOJO0J/GOmZPQ+L0IavVaWvq2JIOM15naXcDHC/vT1MZKBpe3l9/h8+0xtw83fuKlz76kw/M9NEtCCsf9qAnYlcbPzk6siiqoTVrIK1JbG94uX6A6pvdGG4ek/BfMbHUfCPv2ONjS9yuyzZAKxDLq6aSOOjiVU+vJ72PxjZe3UU2rGEVedWBTAtYTieon7OYJHjP6GIWT8T9a6mECmoGqqT2jS0OIcc4laD9tzcx6qnU491Bo8z98su1EqPSRo83PowS5Gk5RCOt/Bkbufb+uYJhTsrT3UEDRze4+sQWAiXIUtE7odRx79fugPAOllIIUb9bYpYRAIus2JWDiuQbzdaTI3+Kcysz1qGjt3rcWpoacDBEU4tO8zzQP4/SFeO6VgPzRNCuFta1D7dVDvjaOR4+8iwl9iUfZrxGpelPoqgt80q9jzvKdZeikTueCTt7z1vdqzG7v3btWfCw4dqhfVGOS7K43Hv2XrXckkXp+5L5IHvrPBL7OwED2puT7575cFsWpbVd/PaayttrbbgQSVEa9jfdE9r5VqbeQ3H7vFKzoUe2qm0bL/W2Dimq6HT00knlCVYaJzgyJHOYMFvZWOKX58pPm+a04+KY8GcRRVthNF/rg86MaDlEobXCauLZ76IwsyWMhdUMuhNsh732XyiSu6aZTQWEK8NEOR7yGGtdMMCR2ZzG4P/PuH9AGNU1OXNW55olHxrnIWeZTksbd3QekNNlJ+a/cVvJQ8/7HT7cO6BpWgw9gXmuIHDqXBF6JvZkQb6OkQWVGmG8tQ60q1NLLhY8z18uxS5tv1+3UnsrOX7BmChGvXd6D8ISDx2qJDESMLqAWyu3dvGvwQAHG+GiLFC2gxdnGJ1DR36BeleQz4LrhbXhJeqPQQjjz9/RE7zi56+QKEJEfmsSN1PPU74wuVwiBYrpzSU21k6pvLTGxtohJVnqdztSUdgCVwgA1clyr2eQ1qhl7ByQiYz9aur4EIWThUwra3ZP/+Pmq+1PNOIIgiAIgiAIgiAIgiAw4R/KfzlBirhIxwAAAABJRU5ErkJggg==;" vertex="1" parent="1">
          <mxGeometry x="157" y="3190" width="106" height="106" as="geometry" />
        </mxCell>
        <mxCell id="lDHJfgaJlsZgmha4-692-136" value="" style="shape=flexArrow;endArrow=classic;html=1;rounded=0;" edge="1" parent="1">
          <mxGeometry width="50" height="50" relative="1" as="geometry">
            <mxPoint x="290" y="4310" as="sourcePoint" />
            <mxPoint x="399" y="4120" as="targetPoint" />
          </mxGeometry>
        </mxCell>
        <mxCell id="lDHJfgaJlsZgmha4-692-137" value="ods" style="edgeLabel;html=1;align=center;verticalAlign=middle;resizable=0;points=[];" vertex="1" connectable="0" parent="lDHJfgaJlsZgmha4-692-136">
          <mxGeometry x="-0.1442" y="-5" relative="1" as="geometry">
            <mxPoint as="offset" />
          </mxGeometry>
        </mxCell>
        <mxCell id="lDHJfgaJlsZgmha4-692-138" value="" style="shape=flexArrow;endArrow=classic;html=1;rounded=0;" edge="1" parent="1">
          <mxGeometry width="50" height="50" relative="1" as="geometry">
            <mxPoint x="1038" y="3960" as="sourcePoint" />
            <mxPoint x="982" y="4080" as="targetPoint" />
          </mxGeometry>
        </mxCell>
        <mxCell id="lDHJfgaJlsZgmha4-692-141" value="" style="verticalLabelPosition=bottom;html=1;verticalAlign=top;strokeWidth=2;shape=mxgraph.lean_mapping.physical_pull;pointerEvents=1;rotation=-50;" vertex="1" parent="1">
          <mxGeometry x="395" y="4210" width="100" height="100" as="geometry" />
        </mxCell>
        <mxCell id="lDHJfgaJlsZgmha4-692-142" value="" style="shape=mxgraph.arrows.circular_arrow;html=1;verticalLabelPosition=bottom;verticalAlign=top;strokeWidth=2;strokeColor=#000000;rotation=0;" vertex="1" parent="1">
          <mxGeometry x="745" y="4101" width="97" height="69" as="geometry" />
        </mxCell>
        <mxCell id="lDHJfgaJlsZgmha4-692-143" value="" style="group" vertex="1" connectable="0" parent="1">
          <mxGeometry x="150" y="2800" width="120" height="290" as="geometry" />
        </mxCell>
        <mxCell id="lDHJfgaJlsZgmha4-692-144" value="&lt;font color=&quot;#ffffff&quot;&gt;&lt;span style=&quot;font-size: 15px;&quot;&gt;Hologres&lt;br&gt;&lt;/span&gt;&lt;/font&gt;" style="rounded=1;whiteSpace=wrap;html=1;strokeColor=none;fillColor=#FF7E08;fontStyle=1" vertex="1" parent="lDHJfgaJlsZgmha4-692-143">
          <mxGeometry width="120" height="290" as="geometry" />
        </mxCell>
        <mxCell id="lDHJfgaJlsZgmha4-692-145" value="" style="shape=image;verticalLabelPosition=bottom;labelBackgroundColor=default;verticalAlign=top;aspect=fixed;imageAspect=0;image=data:image/png,iVBORw0KGgoAAAANSUhEUgAAAMgAAADICAYAAACtWK6eAAAAAXNSR0IArs4c6QAACihJREFUeF7tnbtSHEsQRAcXDIEl+ALt/38NctcBDxxYc25s6KLYQCxb1Y+q7Okjl+muqsw889iXrhb+oQAKnFXgCm1QAAXOKwAgpAMFvlEAQIgHCgAIGUCBMgW4gpTpxqpJFACQSYxmzDIFAKRMN1ZNogCATGI0Y5YpACBlurFqEgUAZBKjGbNMAQAp041VkygAIJMYzZhlCgBImW6smkQBAJnEaMYsUwBAynRj1SQKAMgkRjNmmQIAUqZbyKp1XddehQ6Hw7Lf75fdbkcGvhEZcXolsMG+PQFp0N7fLZ6fn5eHh4dNZkl6qM8Bubq6ku63ZeiOe40CiGfu379/D3XVkgncy8vLent7+63WAOKJ4pjHqnmcCoj3DKkmXu8IevXp3U/m/lnehwJSa3iWSFnBqNUrq++IulHPPd0BaWkygEREb8wavbLRBZCWUJza1UsE1Uj00lF13lZ9tcxJM0AsD9m1ArQcvLaXiPUAUqfy+/v7cnNzU5XxqsXH9t/e3tbr6+u6SYyrAcQoFIf9o0BpdooBiQTjY9rSIUfNC1eQts6VvAdTBEiWcQDSNjCz7ubJkQuQjKsGD+mzxrjv3FZIzIBkXTUApG9QZt399fV1ubu7u5j/iwdEP4h/Z5iV+q2YrnBS2oqWX81hyZMJEBWjLANtyVAV3bekqfeOBECE3QeQvuZYTrgA0teDqt0BpEq+i4ubAZL96hXvg1z0mgOcCljfZTddQY61Fc5mFuKdOkkfrqC5tEAVzVmzZAZE4dUs61AVukktBZD2dlivHH/vWkpayDIOQErcYk3NLbrrCvJZ6mhQAISwlyhgfVPwy/dKSgpmgQIgLdyaZ48aMKpusc5J3Ps7IQAyT7hrJm2Zk6pbrO+G6AFLy8FrDIhaG30LGzVXjzq9stENkB63Yb1E6GFYiz0B5LyKm/nRhnMjlpgPIC2wG3OPLO/DriAWWy5BkyWSpfcex1zSo0dNhT2VfJYC5NLDv5JwEUHaMiAtXmGK8GAIQCKEUKwxKiBbOpEBiCIZ//ekAEjJDx0IS+puDUDckrFgJgUAZCa3mdWtAIC4JWPBTAoAyExuM6tbAQBxS8aCmRQAkJncZla3AgDilowFMykAIDO5zaxuBQDELRkLZlIAQGZym1ndCgCIWzIWzKSACZDjZ4JG+fTlTOYxa7kCx0xbPlRpBuS0FcvG5a2zEgX6KPD09LTe39//3dyS4yJAPipwVeljJLu2VeDcp6K7A3I6BrC0NZXd6hSwfFUgFJDTcbw/71gnBatR4I8CFii8jwpVt1hWY7i6WJXiOKsCLX5WKu0KYhnS0pxlH47ZvgItYPhKJUsGQ64gVgujfuvI2g/HxSrw+VWm3tWHA+Q7QSzD9BaU/esUeHx8XH/9+lW3ScPVlkxJXUEApKH7QVuphd4zNoBcUMvzqsfhcFj2+/2y2+1MJxWPURnHHoP948eP5fSNs4w+MmsCSENALEZaBLfs83GMB2DPvhz7RwGLX6azoYJRlmG8xreeq3WPrfvz6rP14y1+AUjDFFgE95QDEI9a/mMtfgGIX9ezKyyCe8oBiEct/7EWvwDEryuANNQscysA4SE9M3/ytQEEQORDmtkggABIZv7kawMIgMiHNLNBAAGQzPzJ1wYQAJEPaWaDAAIgmfmTrw0gACIf0swGAQRAMvMnXxtAAEQ+pJkNAgiAZOZPvjaAAIh8SDMbBBAAycyffG0AARD5kGY2CCAAkpk/+doAAiDyIc1sEEAAJDN/8rUBBEDkQ5rZIIAASGb+5GsDCIDIhzSzQQABkMz8ydcGEACRD2lmgwACIJn5k68NIAAiH9LMBgEEQDLzJ18bQABEPqSZDQIIgGTmT742gACIfEgzGwQQAMnMn3xtAAEQ+ZBmNgggAJKZP/naAAIg8iHNbBBAACQzf/K1AQRA5EOa2SCAAEhm/uRrAwiAyIc0s0EAAZDM/MnXBhAAkQ9pZoMAAiCZ+ZOvDSAAIh/SzAYBBEAy8ydfG0AARD6kmQ0CCIBk5k++NoAAiHxIMxsEEADJzJ98bQABEPmQZjYIIACSmT/52gACIPIhzWwQQAAkM3/ytQEEQORDmtkggABIZv7kawMIgMiHNLNBAAGQzPzJ1waQhoAcDodlv98vu93uSt55R4OPj4/rz58/l9vbW8eqbRwKINvwcYgpnp6e1vv7+yF6/WgSQIaya55m13VdFaYdFhBL4woC00N7BV5eXtao2z1Lzkz3072ItzTY3gJ2HFGBHhm05C8MEEszIxpHz3kK1EJjyWQXQN7f35ebmxvT3nnyUnlrCry9va3X19fmsUIBsRQzd86BKFCpgOVVNUtmTWf5c5ey19fX5e7uzrRH5bwsR4FiBc49+HcDxLJx8TQsRIGOCpye7C05Np39j5tytejoGluHK3B8XrE8J5sACe+egiggogCAiBhBG5oKAIimL3QlogCAiBhBG5oKAIimL3QlogCAiBhBG5oKAIimL3QlogCAiBhBG5oKAIimL3QlogCAiBhBG5oKAIimL3QlogCAiBjxVRu1XwhqNZrlQ32taqntAyBqjpz0owJIiURb+XArgJS4H7RmZEAsEj0/Py8PDw/SGZRr7lwoZrzMbx2QcxApfWU7DRCv+QBiOSdv+5iMDIQB4gXis9UZ4mTHrVaz7P5714/IRDdAvL8wcUnMCDEu9RD9dwCxK97rtqwpIK2hOJUHQOxhmf3IlrA0ASTiTAcgs8e+bP7a3BQDEvkbqkdpagctkzd3VcSJJ3fCuOql+SkCJMO40gHjLGhfKUPn9lPo7Fhy6+UCpOczxiUZAeSSQvzdqoAnS2ZAss9mnqGsQqkfl625uj41/VnzZAIk+nnjq8GtA9WIprYWQPo6YsmUCRAFoyzD9JUzfncF3eOnjqtoyRSAxPnhrgQgbslcCwDEJZfewQDS1xMA6atv990BpK/EzQA5tpltlmWYvnLG756tefzEcRWt30UxPYN8tJ1pGIDEhWeGStY8uQDJvJJYB9qSuZknpC3peDqL9910NyDHYpb//621wADSWtH59rPeVp0qUwTIxwaRHz0BkPkC3Wpi71WjGSCRoABIq7jMs08NGB8qVV1BvpK6130zgMwT7NpJW2alOSC9rioth641IGp9r5NNVP+RdXrloxsgp+K0eFbpJUCkid5aAHJesagfpgsB5POYJcYDiBevbR2f5X8KICXAZAmUGbOSE0lmvy1ql7wU26LuuT0kALEAAyA9YxC790heSgISa5dutZGuIFHPBNFuAUi04o56EYCo3dI45Ak5FEBCZKbIqAoAyKjO0XeIAgASIjNFRlUAQEZ1jr5DFACQEJkpMqoCADKqc/QdogCAhMhMkVEVAJBRnaPvEAUAJERmioyqAICM6hx9hygAICEyU2RUBQBkVOfoO0QBAAmRmSKjKgAgozpH3yEKAEiIzBQZVQEAGdU5+g5RAEBCZKbIqAr8B4NrzhTKu7nnAAAAAElFTkSuQmCC;" vertex="1" parent="lDHJfgaJlsZgmha4-692-143">
          <mxGeometry x="25" y="190" width="70" height="70" as="geometry" />
        </mxCell>
        <mxCell id="lDHJfgaJlsZgmha4-692-115" value="" style="shape=image;verticalLabelPosition=bottom;labelBackgroundColor=default;verticalAlign=top;aspect=fixed;imageAspect=0;image=data:image/png,iVBORw0KGgoAAAANSUhEUgAAAMgAAADICAYAAACtWK6eAAAAAXNSR0IArs4c6QAACihJREFUeF7tnbtSHEsQRAcXDIEl+ALt/38NctcBDxxYc25s6KLYQCxb1Y+q7Okjl+muqsw889iXrhb+oQAKnFXgCm1QAAXOKwAgpAMFvlEAQIgHCgAIGUCBMgW4gpTpxqpJFACQSYxmzDIFAKRMN1ZNogCATGI0Y5YpACBlurFqEgUAZBKjGbNMAQAp041VkygAIJMYzZhlCgBImW6smkQBAJnEaMYsUwBAynRj1SQKAMgkRjNmmQIAUqZbyKp1XddehQ6Hw7Lf75fdbkcGvhEZcXolsMG+PQFp0N7fLZ6fn5eHh4dNZkl6qM8Bubq6ku63ZeiOe40CiGfu379/D3XVkgncy8vLent7+63WAOKJ4pjHqnmcCoj3DKkmXu8IevXp3U/m/lnehwJSa3iWSFnBqNUrq++IulHPPd0BaWkygEREb8wavbLRBZCWUJza1UsE1Uj00lF13lZ9tcxJM0AsD9m1ArQcvLaXiPUAUqfy+/v7cnNzU5XxqsXH9t/e3tbr6+u6SYyrAcQoFIf9o0BpdooBiQTjY9rSIUfNC1eQts6VvAdTBEiWcQDSNjCz7ubJkQuQjKsGD+mzxrjv3FZIzIBkXTUApG9QZt399fV1ubu7u5j/iwdEP4h/Z5iV+q2YrnBS2oqWX81hyZMJEBWjLANtyVAV3bekqfeOBECE3QeQvuZYTrgA0teDqt0BpEq+i4ubAZL96hXvg1z0mgOcCljfZTddQY61Fc5mFuKdOkkfrqC5tEAVzVmzZAZE4dUs61AVukktBZD2dlivHH/vWkpayDIOQErcYk3NLbrrCvJZ6mhQAISwlyhgfVPwy/dKSgpmgQIgLdyaZ48aMKpusc5J3Ps7IQAyT7hrJm2Zk6pbrO+G6AFLy8FrDIhaG30LGzVXjzq9stENkB63Yb1E6GFYiz0B5LyKm/nRhnMjlpgPIC2wG3OPLO/DriAWWy5BkyWSpfcex1zSo0dNhT2VfJYC5NLDv5JwEUHaMiAtXmGK8GAIQCKEUKwxKiBbOpEBiCIZ//ekAEjJDx0IS+puDUDckrFgJgUAZCa3mdWtAIC4JWPBTAoAyExuM6tbAQBxS8aCmRQAkJncZla3AgDilowFMykAIDO5zaxuBQDELRkLZlIAQGZym1ndCgCIWzIWzKSACZDjZ4JG+fTlTOYxa7kCx0xbPlRpBuS0FcvG5a2zEgX6KPD09LTe39//3dyS4yJAPipwVeljJLu2VeDcp6K7A3I6BrC0NZXd6hSwfFUgFJDTcbw/71gnBatR4I8CFii8jwpVt1hWY7i6WJXiOKsCLX5WKu0KYhnS0pxlH47ZvgItYPhKJUsGQ64gVgujfuvI2g/HxSrw+VWm3tWHA+Q7QSzD9BaU/esUeHx8XH/9+lW3ScPVlkxJXUEApKH7QVuphd4zNoBcUMvzqsfhcFj2+/2y2+1MJxWPURnHHoP948eP5fSNs4w+MmsCSENALEZaBLfs83GMB2DPvhz7RwGLX6azoYJRlmG8xreeq3WPrfvz6rP14y1+AUjDFFgE95QDEI9a/mMtfgGIX9ezKyyCe8oBiEct/7EWvwDEryuANNQscysA4SE9M3/ytQEEQORDmtkggABIZv7kawMIgMiHNLNBAAGQzPzJ1wYQAJEPaWaDAAIgmfmTrw0gACIf0swGAQRAMvMnXxtAAEQ+pJkNAgiAZOZPvjaAAIh8SDMbBBAAycyffG0AARD5kGY2CCAAkpk/+doAAiDyIc1sEEAAJDN/8rUBBEDkQ5rZIIAASGb+5GsDCIDIhzSzQQABkMz8ydcGEACRD2lmgwACIJn5k68NIAAiH9LMBgEEQDLzJ18bQABEPqSZDQIIgGTmT742gACIfEgzGwQQAMnMn3xtAAEQ+ZBmNgggAJKZP/naAAIg8iHNbBBAACQzf/K1AQRA5EOa2SCAAEhm/uRrAwiAyIc0s0EAAZDM/MnXBhAAkQ9pZoMAAiCZ+ZOvDSAAIh/SzAYBBEAy8ydfG0AARD6kmQ0CCIBk5k++NoAAiHxIMxsEEADJzJ98bQABEPmQZjYIIACSmT/52gACIPIhzWwQQAAkM3/ytQEEQORDmtkggABIZv7kawMIgMiHNLNBAAGQzPzJ1waQhoAcDodlv98vu93uSt55R4OPj4/rz58/l9vbW8eqbRwKINvwcYgpnp6e1vv7+yF6/WgSQIaya55m13VdFaYdFhBL4woC00N7BV5eXtao2z1Lzkz3072ItzTY3gJ2HFGBHhm05C8MEEszIxpHz3kK1EJjyWQXQN7f35ebmxvT3nnyUnlrCry9va3X19fmsUIBsRQzd86BKFCpgOVVNUtmTWf5c5ey19fX5e7uzrRH5bwsR4FiBc49+HcDxLJx8TQsRIGOCpye7C05Np39j5tytejoGluHK3B8XrE8J5sACe+egiggogCAiBhBG5oKAIimL3QlogCAiBhBG5oKAIimL3QlogCAiBhBG5oKAIimL3QlogCAiBhBG5oKAIimL3QlogCAiBhBG5oKAIimL3QlogCAiBjxVRu1XwhqNZrlQ32taqntAyBqjpz0owJIiURb+XArgJS4H7RmZEAsEj0/Py8PDw/SGZRr7lwoZrzMbx2QcxApfWU7DRCv+QBiOSdv+5iMDIQB4gXis9UZ4mTHrVaz7P5714/IRDdAvL8wcUnMCDEu9RD9dwCxK97rtqwpIK2hOJUHQOxhmf3IlrA0ASTiTAcgs8e+bP7a3BQDEvkbqkdpagctkzd3VcSJJ3fCuOql+SkCJMO40gHjLGhfKUPn9lPo7Fhy6+UCpOczxiUZAeSSQvzdqoAnS2ZAss9mnqGsQqkfl625uj41/VnzZAIk+nnjq8GtA9WIprYWQPo6YsmUCRAFoyzD9JUzfncF3eOnjqtoyRSAxPnhrgQgbslcCwDEJZfewQDS1xMA6atv990BpK/EzQA5tpltlmWYvnLG756tefzEcRWt30UxPYN8tJ1pGIDEhWeGStY8uQDJvJJYB9qSuZknpC3peDqL9910NyDHYpb//621wADSWtH59rPeVp0qUwTIxwaRHz0BkPkC3Wpi71WjGSCRoABIq7jMs08NGB8qVV1BvpK6130zgMwT7NpJW2alOSC9rioth641IGp9r5NNVP+RdXrloxsgp+K0eFbpJUCkid5aAHJesagfpgsB5POYJcYDiBevbR2f5X8KICXAZAmUGbOSE0lmvy1ql7wU26LuuT0kALEAAyA9YxC790heSgISa5dutZGuIFHPBNFuAUi04o56EYCo3dI45Ak5FEBCZKbIqAoAyKjO0XeIAgASIjNFRlUAQEZ1jr5DFACQEJkpMqoCADKqc/QdogCAhMhMkVEVAJBRnaPvEAUAJERmioyqAICM6hx9hygAICEyU2RUBQBkVOfoO0QBAAmRmSKjKgAgozpH3yEKAEiIzBQZVQEAGdU5+g5RAEBCZKbIqAr8B4NrzhTKu7nnAAAAAElFTkSuQmCC;" vertex="1" parent="lDHJfgaJlsZgmha4-692-143">
          <mxGeometry x="21.25" y="32" width="77.5" height="77.5" as="geometry" />
        </mxCell>
        <mxCell id="lDHJfgaJlsZgmha4-692-152" value="" style="group" vertex="1" connectable="0" parent="1">
          <mxGeometry x="1109" y="2830" width="100" height="290" as="geometry" />
        </mxCell>
        <mxCell id="lDHJfgaJlsZgmha4-692-102" value="&lt;font color=&quot;#ffffff&quot;&gt;&lt;span style=&quot;font-size: 15px;&quot;&gt;&lt;br&gt;&lt;br&gt;&lt;br&gt;&lt;br&gt;Hologres&lt;br&gt;&lt;/span&gt;&lt;/font&gt;" style="rounded=1;whiteSpace=wrap;html=1;strokeColor=none;fillColor=#FF7E08;fontStyle=1" vertex="1" parent="lDHJfgaJlsZgmha4-692-152">
          <mxGeometry width="100" height="290" as="geometry" />
        </mxCell>
        <mxCell id="lDHJfgaJlsZgmha4-692-110" value="" style="shape=image;verticalLabelPosition=bottom;labelBackgroundColor=default;verticalAlign=top;aspect=fixed;imageAspect=0;image=data:image/png,iVBORw0KGgoAAAANSUhEUgAAAMgAAADICAYAAACtWK6eAAAAAXNSR0IArs4c6QAACihJREFUeF7tnbtSHEsQRAcXDIEl+ALt/38NctcBDxxYc25s6KLYQCxb1Y+q7Okjl+muqsw889iXrhb+oQAKnFXgCm1QAAXOKwAgpAMFvlEAQIgHCgAIGUCBMgW4gpTpxqpJFACQSYxmzDIFAKRMN1ZNogCATGI0Y5YpACBlurFqEgUAZBKjGbNMAQAp041VkygAIJMYzZhlCgBImW6smkQBAJnEaMYsUwBAynRj1SQKAMgkRjNmmQIAUqZbyKp1XddehQ6Hw7Lf75fdbkcGvhEZcXolsMG+PQFp0N7fLZ6fn5eHh4dNZkl6qM8Bubq6ku63ZeiOe40CiGfu379/D3XVkgncy8vLent7+63WAOKJ4pjHqnmcCoj3DKkmXu8IevXp3U/m/lnehwJSa3iWSFnBqNUrq++IulHPPd0BaWkygEREb8wavbLRBZCWUJza1UsE1Uj00lF13lZ9tcxJM0AsD9m1ArQcvLaXiPUAUqfy+/v7cnNzU5XxqsXH9t/e3tbr6+u6SYyrAcQoFIf9o0BpdooBiQTjY9rSIUfNC1eQts6VvAdTBEiWcQDSNjCz7ubJkQuQjKsGD+mzxrjv3FZIzIBkXTUApG9QZt399fV1ubu7u5j/iwdEP4h/Z5iV+q2YrnBS2oqWX81hyZMJEBWjLANtyVAV3bekqfeOBECE3QeQvuZYTrgA0teDqt0BpEq+i4ubAZL96hXvg1z0mgOcCljfZTddQY61Fc5mFuKdOkkfrqC5tEAVzVmzZAZE4dUs61AVukktBZD2dlivHH/vWkpayDIOQErcYk3NLbrrCvJZ6mhQAISwlyhgfVPwy/dKSgpmgQIgLdyaZ48aMKpusc5J3Ps7IQAyT7hrJm2Zk6pbrO+G6AFLy8FrDIhaG30LGzVXjzq9stENkB63Yb1E6GFYiz0B5LyKm/nRhnMjlpgPIC2wG3OPLO/DriAWWy5BkyWSpfcex1zSo0dNhT2VfJYC5NLDv5JwEUHaMiAtXmGK8GAIQCKEUKwxKiBbOpEBiCIZ//ekAEjJDx0IS+puDUDckrFgJgUAZCa3mdWtAIC4JWPBTAoAyExuM6tbAQBxS8aCmRQAkJncZla3AgDilowFMykAIDO5zaxuBQDELRkLZlIAQGZym1ndCgCIWzIWzKSACZDjZ4JG+fTlTOYxa7kCx0xbPlRpBuS0FcvG5a2zEgX6KPD09LTe39//3dyS4yJAPipwVeljJLu2VeDcp6K7A3I6BrC0NZXd6hSwfFUgFJDTcbw/71gnBatR4I8CFii8jwpVt1hWY7i6WJXiOKsCLX5WKu0KYhnS0pxlH47ZvgItYPhKJUsGQ64gVgujfuvI2g/HxSrw+VWm3tWHA+Q7QSzD9BaU/esUeHx8XH/9+lW3ScPVlkxJXUEApKH7QVuphd4zNoBcUMvzqsfhcFj2+/2y2+1MJxWPURnHHoP948eP5fSNs4w+MmsCSENALEZaBLfs83GMB2DPvhz7RwGLX6azoYJRlmG8xreeq3WPrfvz6rP14y1+AUjDFFgE95QDEI9a/mMtfgGIX9ezKyyCe8oBiEct/7EWvwDEryuANNQscysA4SE9M3/ytQEEQORDmtkggABIZv7kawMIgMiHNLNBAAGQzPzJ1wYQAJEPaWaDAAIgmfmTrw0gACIf0swGAQRAMvMnXxtAAEQ+pJkNAgiAZOZPvjaAAIh8SDMbBBAAycyffG0AARD5kGY2CCAAkpk/+doAAiDyIc1sEEAAJDN/8rUBBEDkQ5rZIIAASGb+5GsDCIDIhzSzQQABkMz8ydcGEACRD2lmgwACIJn5k68NIAAiH9LMBgEEQDLzJ18bQABEPqSZDQIIgGTmT742gACIfEgzGwQQAMnMn3xtAAEQ+ZBmNgggAJKZP/naAAIg8iHNbBBAACQzf/K1AQRA5EOa2SCAAEhm/uRrAwiAyIc0s0EAAZDM/MnXBhAAkQ9pZoMAAiCZ+ZOvDSAAIh/SzAYBBEAy8ydfG0AARD6kmQ0CCIBk5k++NoAAiHxIMxsEEADJzJ98bQABEPmQZjYIIACSmT/52gACIPIhzWwQQAAkM3/ytQEEQORDmtkggABIZv7kawMIgMiHNLNBAAGQzPzJ1waQhoAcDodlv98vu93uSt55R4OPj4/rz58/l9vbW8eqbRwKINvwcYgpnp6e1vv7+yF6/WgSQIaya55m13VdFaYdFhBL4woC00N7BV5eXtao2z1Lzkz3072ItzTY3gJ2HFGBHhm05C8MEEszIxpHz3kK1EJjyWQXQN7f35ebmxvT3nnyUnlrCry9va3X19fmsUIBsRQzd86BKFCpgOVVNUtmTWf5c5ey19fX5e7uzrRH5bwsR4FiBc49+HcDxLJx8TQsRIGOCpye7C05Np39j5tytejoGluHK3B8XrE8J5sACe+egiggogCAiBhBG5oKAIimL3QlogCAiBhBG5oKAIimL3QlogCAiBhBG5oKAIimL3QlogCAiBhBG5oKAIimL3QlogCAiBhBG5oKAIimL3QlogCAiBjxVRu1XwhqNZrlQ32taqntAyBqjpz0owJIiURb+XArgJS4H7RmZEAsEj0/Py8PDw/SGZRr7lwoZrzMbx2QcxApfWU7DRCv+QBiOSdv+5iMDIQB4gXis9UZ4mTHrVaz7P5714/IRDdAvL8wcUnMCDEu9RD9dwCxK97rtqwpIK2hOJUHQOxhmf3IlrA0ASTiTAcgs8e+bP7a3BQDEvkbqkdpagctkzd3VcSJJ3fCuOql+SkCJMO40gHjLGhfKUPn9lPo7Fhy6+UCpOczxiUZAeSSQvzdqoAnS2ZAss9mnqGsQqkfl625uj41/VnzZAIk+nnjq8GtA9WIprYWQPo6YsmUCRAFoyzD9JUzfncF3eOnjqtoyRSAxPnhrgQgbslcCwDEJZfewQDS1xMA6atv990BpK/EzQA5tpltlmWYvnLG756tefzEcRWt30UxPYN8tJ1pGIDEhWeGStY8uQDJvJJYB9qSuZknpC3peDqL9910NyDHYpb//621wADSWtH59rPeVp0qUwTIxwaRHz0BkPkC3Wpi71WjGSCRoABIq7jMs08NGB8qVV1BvpK6130zgMwT7NpJW2alOSC9rioth641IGp9r5NNVP+RdXrloxsgp+K0eFbpJUCkid5aAHJesagfpgsB5POYJcYDiBevbR2f5X8KICXAZAmUGbOSE0lmvy1ql7wU26LuuT0kALEAAyA9YxC790heSgISa5dutZGuIFHPBNFuAUi04o56EYCo3dI45Ak5FEBCZKbIqAoAyKjO0XeIAgASIjNFRlUAQEZ1jr5DFACQEJkpMqoCADKqc/QdogCAhMhMkVEVAJBRnaPvEAUAJERmioyqAICM6hx9hygAICEyU2RUBQBkVOfoO0QBAAmRmSKjKgAgozpH3yEKAEiIzBQZVQEAGdU5+g5RAEBCZKbIqAr8B4NrzhTKu7nnAAAAAElFTkSuQmCC;" vertex="1" parent="lDHJfgaJlsZgmha4-692-152">
          <mxGeometry x="20.833333333333336" y="100" width="58.333333333333336" height="58.333333333333336" as="geometry" />
        </mxCell>
        <mxCell id="lDHJfgaJlsZgmha4-692-163" value="ODS" style="text;html=1;strokeColor=none;fillColor=none;align=center;verticalAlign=middle;whiteSpace=wrap;rounded=0;fontColor=#FFFFFF;fontStyle=1;fontSize=23;" vertex="1" parent="lDHJfgaJlsZgmha4-692-152">
          <mxGeometry x="20" y="50" width="60" height="30" as="geometry" />
        </mxCell>
        <mxCell id="lDHJfgaJlsZgmha4-692-164" value="" style="group" vertex="1" connectable="0" parent="1">
          <mxGeometry x="1321" y="2830" width="100" height="290" as="geometry" />
        </mxCell>
        <mxCell id="lDHJfgaJlsZgmha4-692-165" value="&lt;font color=&quot;#ffffff&quot;&gt;&lt;span style=&quot;font-size: 15px;&quot;&gt;&lt;br&gt;&lt;br&gt;&lt;br&gt;&lt;br&gt;Hologres&lt;br&gt;&lt;/span&gt;&lt;/font&gt;" style="rounded=1;whiteSpace=wrap;html=1;strokeColor=none;fillColor=#FF7E08;fontStyle=1" vertex="1" parent="lDHJfgaJlsZgmha4-692-164">
          <mxGeometry width="100" height="290" as="geometry" />
        </mxCell>
        <mxCell id="lDHJfgaJlsZgmha4-692-166" value="" style="shape=image;verticalLabelPosition=bottom;labelBackgroundColor=default;verticalAlign=top;aspect=fixed;imageAspect=0;image=data:image/png,iVBORw0KGgoAAAANSUhEUgAAAMgAAADICAYAAACtWK6eAAAAAXNSR0IArs4c6QAACihJREFUeF7tnbtSHEsQRAcXDIEl+ALt/38NctcBDxxYc25s6KLYQCxb1Y+q7Okjl+muqsw889iXrhb+oQAKnFXgCm1QAAXOKwAgpAMFvlEAQIgHCgAIGUCBMgW4gpTpxqpJFACQSYxmzDIFAKRMN1ZNogCATGI0Y5YpACBlurFqEgUAZBKjGbNMAQAp041VkygAIJMYzZhlCgBImW6smkQBAJnEaMYsUwBAynRj1SQKAMgkRjNmmQIAUqZbyKp1XddehQ6Hw7Lf75fdbkcGvhEZcXolsMG+PQFp0N7fLZ6fn5eHh4dNZkl6qM8Bubq6ku63ZeiOe40CiGfu379/D3XVkgncy8vLent7+63WAOKJ4pjHqnmcCoj3DKkmXu8IevXp3U/m/lnehwJSa3iWSFnBqNUrq++IulHPPd0BaWkygEREb8wavbLRBZCWUJza1UsE1Uj00lF13lZ9tcxJM0AsD9m1ArQcvLaXiPUAUqfy+/v7cnNzU5XxqsXH9t/e3tbr6+u6SYyrAcQoFIf9o0BpdooBiQTjY9rSIUfNC1eQts6VvAdTBEiWcQDSNjCz7ubJkQuQjKsGD+mzxrjv3FZIzIBkXTUApG9QZt399fV1ubu7u5j/iwdEP4h/Z5iV+q2YrnBS2oqWX81hyZMJEBWjLANtyVAV3bekqfeOBECE3QeQvuZYTrgA0teDqt0BpEq+i4ubAZL96hXvg1z0mgOcCljfZTddQY61Fc5mFuKdOkkfrqC5tEAVzVmzZAZE4dUs61AVukktBZD2dlivHH/vWkpayDIOQErcYk3NLbrrCvJZ6mhQAISwlyhgfVPwy/dKSgpmgQIgLdyaZ48aMKpusc5J3Ps7IQAyT7hrJm2Zk6pbrO+G6AFLy8FrDIhaG30LGzVXjzq9stENkB63Yb1E6GFYiz0B5LyKm/nRhnMjlpgPIC2wG3OPLO/DriAWWy5BkyWSpfcex1zSo0dNhT2VfJYC5NLDv5JwEUHaMiAtXmGK8GAIQCKEUKwxKiBbOpEBiCIZ//ekAEjJDx0IS+puDUDckrFgJgUAZCa3mdWtAIC4JWPBTAoAyExuM6tbAQBxS8aCmRQAkJncZla3AgDilowFMykAIDO5zaxuBQDELRkLZlIAQGZym1ndCgCIWzIWzKSACZDjZ4JG+fTlTOYxa7kCx0xbPlRpBuS0FcvG5a2zEgX6KPD09LTe39//3dyS4yJAPipwVeljJLu2VeDcp6K7A3I6BrC0NZXd6hSwfFUgFJDTcbw/71gnBatR4I8CFii8jwpVt1hWY7i6WJXiOKsCLX5WKu0KYhnS0pxlH47ZvgItYPhKJUsGQ64gVgujfuvI2g/HxSrw+VWm3tWHA+Q7QSzD9BaU/esUeHx8XH/9+lW3ScPVlkxJXUEApKH7QVuphd4zNoBcUMvzqsfhcFj2+/2y2+1MJxWPURnHHoP948eP5fSNs4w+MmsCSENALEZaBLfs83GMB2DPvhz7RwGLX6azoYJRlmG8xreeq3WPrfvz6rP14y1+AUjDFFgE95QDEI9a/mMtfgGIX9ezKyyCe8oBiEct/7EWvwDEryuANNQscysA4SE9M3/ytQEEQORDmtkggABIZv7kawMIgMiHNLNBAAGQzPzJ1wYQAJEPaWaDAAIgmfmTrw0gACIf0swGAQRAMvMnXxtAAEQ+pJkNAgiAZOZPvjaAAIh8SDMbBBAAycyffG0AARD5kGY2CCAAkpk/+doAAiDyIc1sEEAAJDN/8rUBBEDkQ5rZIIAASGb+5GsDCIDIhzSzQQABkMz8ydcGEACRD2lmgwACIJn5k68NIAAiH9LMBgEEQDLzJ18bQABEPqSZDQIIgGTmT742gACIfEgzGwQQAMnMn3xtAAEQ+ZBmNgggAJKZP/naAAIg8iHNbBBAACQzf/K1AQRA5EOa2SCAAEhm/uRrAwiAyIc0s0EAAZDM/MnXBhAAkQ9pZoMAAiCZ+ZOvDSAAIh/SzAYBBEAy8ydfG0AARD6kmQ0CCIBk5k++NoAAiHxIMxsEEADJzJ98bQABEPmQZjYIIACSmT/52gACIPIhzWwQQAAkM3/ytQEEQORDmtkggABIZv7kawMIgMiHNLNBAAGQzPzJ1waQhoAcDodlv98vu93uSt55R4OPj4/rz58/l9vbW8eqbRwKINvwcYgpnp6e1vv7+yF6/WgSQIaya55m13VdFaYdFhBL4woC00N7BV5eXtao2z1Lzkz3072ItzTY3gJ2HFGBHhm05C8MEEszIxpHz3kK1EJjyWQXQN7f35ebmxvT3nnyUnlrCry9va3X19fmsUIBsRQzd86BKFCpgOVVNUtmTWf5c5ey19fX5e7uzrRH5bwsR4FiBc49+HcDxLJx8TQsRIGOCpye7C05Np39j5tytejoGluHK3B8XrE8J5sACe+egiggogCAiBhBG5oKAIimL3QlogCAiBhBG5oKAIimL3QlogCAiBhBG5oKAIimL3QlogCAiBhBG5oKAIimL3QlogCAiBhBG5oKAIimL3QlogCAiBjxVRu1XwhqNZrlQ32taqntAyBqjpz0owJIiURb+XArgJS4H7RmZEAsEj0/Py8PDw/SGZRr7lwoZrzMbx2QcxApfWU7DRCv+QBiOSdv+5iMDIQB4gXis9UZ4mTHrVaz7P5714/IRDdAvL8wcUnMCDEu9RD9dwCxK97rtqwpIK2hOJUHQOxhmf3IlrA0ASTiTAcgs8e+bP7a3BQDEvkbqkdpagctkzd3VcSJJ3fCuOql+SkCJMO40gHjLGhfKUPn9lPo7Fhy6+UCpOczxiUZAeSSQvzdqoAnS2ZAss9mnqGsQqkfl625uj41/VnzZAIk+nnjq8GtA9WIprYWQPo6YsmUCRAFoyzD9JUzfncF3eOnjqtoyRSAxPnhrgQgbslcCwDEJZfewQDS1xMA6atv990BpK/EzQA5tpltlmWYvnLG756tefzEcRWt30UxPYN8tJ1pGIDEhWeGStY8uQDJvJJYB9qSuZknpC3peDqL9910NyDHYpb//621wADSWtH59rPeVp0qUwTIxwaRHz0BkPkC3Wpi71WjGSCRoABIq7jMs08NGB8qVV1BvpK6130zgMwT7NpJW2alOSC9rioth641IGp9r5NNVP+RdXrloxsgp+K0eFbpJUCkid5aAHJesagfpgsB5POYJcYDiBevbR2f5X8KICXAZAmUGbOSE0lmvy1ql7wU26LuuT0kALEAAyA9YxC790heSgISa5dutZGuIFHPBNFuAUi04o56EYCo3dI45Ak5FEBCZKbIqAoAyKjO0XeIAgASIjNFRlUAQEZ1jr5DFACQEJkpMqoCADKqc/QdogCAhMhMkVEVAJBRnaPvEAUAJERmioyqAICM6hx9hygAICEyU2RUBQBkVOfoO0QBAAmRmSKjKgAgozpH3yEKAEiIzBQZVQEAGdU5+g5RAEBCZKbIqAr8B4NrzhTKu7nnAAAAAElFTkSuQmCC;" vertex="1" parent="lDHJfgaJlsZgmha4-692-164">
          <mxGeometry x="20.833333333333336" y="100" width="58.333333333333336" height="58.333333333333336" as="geometry" />
        </mxCell>
        <mxCell id="lDHJfgaJlsZgmha4-692-167" value="DW" style="text;html=1;strokeColor=none;fillColor=none;align=center;verticalAlign=middle;whiteSpace=wrap;rounded=0;fontColor=#FFFFFF;fontStyle=1;fontSize=23;" vertex="1" parent="lDHJfgaJlsZgmha4-692-164">
          <mxGeometry x="20" y="50" width="60" height="30" as="geometry" />
        </mxCell>
        <mxCell id="lDHJfgaJlsZgmha4-692-168" value="" style="group" vertex="1" connectable="0" parent="1">
          <mxGeometry x="1541" y="2830" width="100" height="290" as="geometry" />
        </mxCell>
        <mxCell id="lDHJfgaJlsZgmha4-692-169" value="&lt;font color=&quot;#ffffff&quot;&gt;&lt;span style=&quot;font-size: 15px;&quot;&gt;&lt;br&gt;&lt;br&gt;&lt;br&gt;&lt;br&gt;Hologres&lt;br&gt;&lt;/span&gt;&lt;/font&gt;" style="rounded=1;whiteSpace=wrap;html=1;strokeColor=none;fillColor=#FF7E08;fontStyle=1" vertex="1" parent="lDHJfgaJlsZgmha4-692-168">
          <mxGeometry width="100" height="290" as="geometry" />
        </mxCell>
        <mxCell id="lDHJfgaJlsZgmha4-692-170" value="" style="shape=image;verticalLabelPosition=bottom;labelBackgroundColor=default;verticalAlign=top;aspect=fixed;imageAspect=0;image=data:image/png,iVBORw0KGgoAAAANSUhEUgAAAMgAAADICAYAAACtWK6eAAAAAXNSR0IArs4c6QAACihJREFUeF7tnbtSHEsQRAcXDIEl+ALt/38NctcBDxxYc25s6KLYQCxb1Y+q7Okjl+muqsw889iXrhb+oQAKnFXgCm1QAAXOKwAgpAMFvlEAQIgHCgAIGUCBMgW4gpTpxqpJFACQSYxmzDIFAKRMN1ZNogCATGI0Y5YpACBlurFqEgUAZBKjGbNMAQAp041VkygAIJMYzZhlCgBImW6smkQBAJnEaMYsUwBAynRj1SQKAMgkRjNmmQIAUqZbyKp1XddehQ6Hw7Lf75fdbkcGvhEZcXolsMG+PQFp0N7fLZ6fn5eHh4dNZkl6qM8Bubq6ku63ZeiOe40CiGfu379/D3XVkgncy8vLent7+63WAOKJ4pjHqnmcCoj3DKkmXu8IevXp3U/m/lnehwJSa3iWSFnBqNUrq++IulHPPd0BaWkygEREb8wavbLRBZCWUJza1UsE1Uj00lF13lZ9tcxJM0AsD9m1ArQcvLaXiPUAUqfy+/v7cnNzU5XxqsXH9t/e3tbr6+u6SYyrAcQoFIf9o0BpdooBiQTjY9rSIUfNC1eQts6VvAdTBEiWcQDSNjCz7ubJkQuQjKsGD+mzxrjv3FZIzIBkXTUApG9QZt399fV1ubu7u5j/iwdEP4h/Z5iV+q2YrnBS2oqWX81hyZMJEBWjLANtyVAV3bekqfeOBECE3QeQvuZYTrgA0teDqt0BpEq+i4ubAZL96hXvg1z0mgOcCljfZTddQY61Fc5mFuKdOkkfrqC5tEAVzVmzZAZE4dUs61AVukktBZD2dlivHH/vWkpayDIOQErcYk3NLbrrCvJZ6mhQAISwlyhgfVPwy/dKSgpmgQIgLdyaZ48aMKpusc5J3Ps7IQAyT7hrJm2Zk6pbrO+G6AFLy8FrDIhaG30LGzVXjzq9stENkB63Yb1E6GFYiz0B5LyKm/nRhnMjlpgPIC2wG3OPLO/DriAWWy5BkyWSpfcex1zSo0dNhT2VfJYC5NLDv5JwEUHaMiAtXmGK8GAIQCKEUKwxKiBbOpEBiCIZ//ekAEjJDx0IS+puDUDckrFgJgUAZCa3mdWtAIC4JWPBTAoAyExuM6tbAQBxS8aCmRQAkJncZla3AgDilowFMykAIDO5zaxuBQDELRkLZlIAQGZym1ndCgCIWzIWzKSACZDjZ4JG+fTlTOYxa7kCx0xbPlRpBuS0FcvG5a2zEgX6KPD09LTe39//3dyS4yJAPipwVeljJLu2VeDcp6K7A3I6BrC0NZXd6hSwfFUgFJDTcbw/71gnBatR4I8CFii8jwpVt1hWY7i6WJXiOKsCLX5WKu0KYhnS0pxlH47ZvgItYPhKJUsGQ64gVgujfuvI2g/HxSrw+VWm3tWHA+Q7QSzD9BaU/esUeHx8XH/9+lW3ScPVlkxJXUEApKH7QVuphd4zNoBcUMvzqsfhcFj2+/2y2+1MJxWPURnHHoP948eP5fSNs4w+MmsCSENALEZaBLfs83GMB2DPvhz7RwGLX6azoYJRlmG8xreeq3WPrfvz6rP14y1+AUjDFFgE95QDEI9a/mMtfgGIX9ezKyyCe8oBiEct/7EWvwDEryuANNQscysA4SE9M3/ytQEEQORDmtkggABIZv7kawMIgMiHNLNBAAGQzPzJ1wYQAJEPaWaDAAIgmfmTrw0gACIf0swGAQRAMvMnXxtAAEQ+pJkNAgiAZOZPvjaAAIh8SDMbBBAAycyffG0AARD5kGY2CCAAkpk/+doAAiDyIc1sEEAAJDN/8rUBBEDkQ5rZIIAASGb+5GsDCIDIhzSzQQABkMz8ydcGEACRD2lmgwACIJn5k68NIAAiH9LMBgEEQDLzJ18bQABEPqSZDQIIgGTmT742gACIfEgzGwQQAMnMn3xtAAEQ+ZBmNgggAJKZP/naAAIg8iHNbBBAACQzf/K1AQRA5EOa2SCAAEhm/uRrAwiAyIc0s0EAAZDM/MnXBhAAkQ9pZoMAAiCZ+ZOvDSAAIh/SzAYBBEAy8ydfG0AARD6kmQ0CCIBk5k++NoAAiHxIMxsEEADJzJ98bQABEPmQZjYIIACSmT/52gACIPIhzWwQQAAkM3/ytQEEQORDmtkggABIZv7kawMIgMiHNLNBAAGQzPzJ1waQhoAcDodlv98vu93uSt55R4OPj4/rz58/l9vbW8eqbRwKINvwcYgpnp6e1vv7+yF6/WgSQIaya55m13VdFaYdFhBL4woC00N7BV5eXtao2z1Lzkz3072ItzTY3gJ2HFGBHhm05C8MEEszIxpHz3kK1EJjyWQXQN7f35ebmxvT3nnyUnlrCry9va3X19fmsUIBsRQzd86BKFCpgOVVNUtmTWf5c5ey19fX5e7uzrRH5bwsR4FiBc49+HcDxLJx8TQsRIGOCpye7C05Np39j5tytejoGluHK3B8XrE8J5sACe+egiggogCAiBhBG5oKAIimL3QlogCAiBhBG5oKAIimL3QlogCAiBhBG5oKAIimL3QlogCAiBhBG5oKAIimL3QlogCAiBhBG5oKAIimL3QlogCAiBjxVRu1XwhqNZrlQ32taqntAyBqjpz0owJIiURb+XArgJS4H7RmZEAsEj0/Py8PDw/SGZRr7lwoZrzMbx2QcxApfWU7DRCv+QBiOSdv+5iMDIQB4gXis9UZ4mTHrVaz7P5714/IRDdAvL8wcUnMCDEu9RD9dwCxK97rtqwpIK2hOJUHQOxhmf3IlrA0ASTiTAcgs8e+bP7a3BQDEvkbqkdpagctkzd3VcSJJ3fCuOql+SkCJMO40gHjLGhfKUPn9lPo7Fhy6+UCpOczxiUZAeSSQvzdqoAnS2ZAss9mnqGsQqkfl625uj41/VnzZAIk+nnjq8GtA9WIprYWQPo6YsmUCRAFoyzD9JUzfncF3eOnjqtoyRSAxPnhrgQgbslcCwDEJZfewQDS1xMA6atv990BpK/EzQA5tpltlmWYvnLG756tefzEcRWt30UxPYN8tJ1pGIDEhWeGStY8uQDJvJJYB9qSuZknpC3peDqL9910NyDHYpb//621wADSWtH59rPeVp0qUwTIxwaRHz0BkPkC3Wpi71WjGSCRoABIq7jMs08NGB8qVV1BvpK6130zgMwT7NpJW2alOSC9rioth641IGp9r5NNVP+RdXrloxsgp+K0eFbpJUCkid5aAHJesagfpgsB5POYJcYDiBevbR2f5X8KICXAZAmUGbOSE0lmvy1ql7wU26LuuT0kALEAAyA9YxC790heSgISa5dutZGuIFHPBNFuAUi04o56EYCo3dI45Ak5FEBCZKbIqAoAyKjO0XeIAgASIjNFRlUAQEZ1jr5DFACQEJkpMqoCADKqc/QdogCAhMhMkVEVAJBRnaPvEAUAJERmioyqAICM6hx9hygAICEyU2RUBQBkVOfoO0QBAAmRmSKjKgAgozpH3yEKAEiIzBQZVQEAGdU5+g5RAEBCZKbIqAr8B4NrzhTKu7nnAAAAAElFTkSuQmCC;" vertex="1" parent="lDHJfgaJlsZgmha4-692-168">
          <mxGeometry x="20.833333333333336" y="100" width="58.333333333333336" height="58.333333333333336" as="geometry" />
        </mxCell>
        <mxCell id="lDHJfgaJlsZgmha4-692-171" value="ADS" style="text;html=1;strokeColor=none;fillColor=none;align=center;verticalAlign=middle;whiteSpace=wrap;rounded=0;fontColor=#FFFFFF;fontStyle=1;fontSize=23;" vertex="1" parent="lDHJfgaJlsZgmha4-692-168">
          <mxGeometry x="20" y="50" width="60" height="30" as="geometry" />
        </mxCell>
        <mxCell id="lDHJfgaJlsZgmha4-692-181" style="edgeStyle=orthogonalEdgeStyle;rounded=0;orthogonalLoop=1;jettySize=auto;html=1;exitX=1;exitY=0.5;exitDx=0;exitDy=0;entryX=0;entryY=0.5;entryDx=0;entryDy=0;" edge="1" parent="1" source="lDHJfgaJlsZgmha4-692-102" target="lDHJfgaJlsZgmha4-692-165">
          <mxGeometry relative="1" as="geometry" />
        </mxCell>
        <mxCell id="lDHJfgaJlsZgmha4-692-182" style="edgeStyle=orthogonalEdgeStyle;rounded=0;orthogonalLoop=1;jettySize=auto;html=1;exitX=1;exitY=0.5;exitDx=0;exitDy=0;entryX=0;entryY=0.5;entryDx=0;entryDy=0;" edge="1" parent="1" source="lDHJfgaJlsZgmha4-692-165" target="lDHJfgaJlsZgmha4-692-169">
          <mxGeometry relative="1" as="geometry" />
        </mxCell>
        <mxCell id="lDHJfgaJlsZgmha4-692-188" value="" style="group" vertex="1" connectable="0" parent="1">
          <mxGeometry x="1230" y="2900" width="70" height="100" as="geometry" />
        </mxCell>
        <mxCell id="lDHJfgaJlsZgmha4-692-184" value="" style="shape=image;verticalLabelPosition=bottom;labelBackgroundColor=default;verticalAlign=top;aspect=fixed;imageAspect=0;image=data:image/png,iVBORw0KGgoAAAANSUhEUgAAAMgAAADICAMAAACahl6sAAAAG1BMVEX/////agD/gyX/9/L/v5D/1bb/6Nf/qWr/l0prFfVXAAAF7ElEQVR4nO2d6WLkIAiAO17x/Z94J5m2wQM8kih2+f52DwmiXNKvL0EQBEEQBEEQBEEQBEGYjXZm8+r1RvnNOj17Pb0441+AzbjZK+rCbeoVobYFlWJjKT6i2NnrasRtWTn2DbaUUrTH5HhLspClaFQfa+mE0schyewFVqLzdg5YxOJtcuzGqDXMJNxYfr8GXSTcEpvLBSv+2UU6OJCXUAlcsAUHVHCUGf4nl/PYcqFO/CyVaOdsHWC1Jv5HPP6zMTi7u+N1UIYAzuUJ5q5N6sZWka5Vn/+QHy1GxhmvJOfonipRY8XQtuBtNAoCjuaxcpDOX4HswTRHEDyoqCF76U0RxPVax7cgXLaW6zePD5mrwpxiDpPjkn0c+NQNOb/NuOM3lkMpXwXYj8neAhfisJvdRWJ4Y52uwZySxDcicFGGZVN0aOimPkvoUIdKnxYyLgNhoBht0QP8q4EkgX9/73JRgvRB49fT8BtsPxFJGFhlzoFngOkD1fqfhsfEblxv79kHe3WUqWt0e9QQJx8i777n2/SCR3lVlNIow+SAO6snTVC6S8dFh/Cc7Pl6pCRqYOKBiLtj9NuQrU2WRkgyMs0ITITaWdr+ho9qC4WBF3ykj4fXHgAWQWwDE6cU4Q913nkeXH0DgqB/Jv3mKlSKTZUy0jwOKgTJRl1RdLtvvd8/pvyEWmhZEORcSs64vT59MKekWxYEO5VyebfduX9ytQRFQfBSDq8aTkkQorY2zK+toiQIVVt7UCVVEWoAvEcyOIPL8VTl40rOs49nonFdLkzeziOCTJDjGSd9ghzPlHAmyCGCkIw+snYesZEZxv7M8Xu5NtDMUxX0tx/dzqlHlfuxp/TMqqfhVGN+wxO+Fq8uk/OL5zc84f2yao8DtRHk++IqYaWQikof5v+yiqtsTaNFPtad0yqDUNfDk8vADc/20MD9T+yUtAVTpZnTiQSlEfoI0kGq0bMSI/zOxTyt27u4Xkfpmll/tQ1suOJO0J/GOmZPQ+L0IavVaWvq2JIOM15naXcDHC/vT1MZKBpe3l9/h8+0xtw83fuKlz76kw/M9NEtCCsf9qAnYlcbPzk6siiqoTVrIK1JbG94uX6A6pvdGG4ek/BfMbHUfCPv2ONjS9yuyzZAKxDLq6aSOOjiVU+vJ72PxjZe3UU2rGEVedWBTAtYTieon7OYJHjP6GIWT8T9a6mECmoGqqT2jS0OIcc4laD9tzcx6qnU491Bo8z98su1EqPSRo83PowS5Gk5RCOt/Bkbufb+uYJhTsrT3UEDRze4+sQWAiXIUtE7odRx79fugPAOllIIUb9bYpYRAIus2JWDiuQbzdaTI3+Kcysz1qGjt3rcWpoacDBEU4tO8zzQP4/SFeO6VgPzRNCuFta1D7dVDvjaOR4+8iwl9iUfZrxGpelPoqgt80q9jzvKdZeikTueCTt7z1vdqzG7v3btWfCw4dqhfVGOS7K43Hv2XrXckkXp+5L5IHvrPBL7OwED2puT7575cFsWpbVd/PaayttrbbgQSVEa9jfdE9r5VqbeQ3H7vFKzoUe2qm0bL/W2Dimq6HT00knlCVYaJzgyJHOYMFvZWOKX58pPm+a04+KY8GcRRVthNF/rg86MaDlEobXCauLZ76IwsyWMhdUMuhNsh732XyiSu6aZTQWEK8NEOR7yGGtdMMCR2ZzG4P/PuH9AGNU1OXNW55olHxrnIWeZTksbd3QekNNlJ+a/cVvJQ8/7HT7cO6BpWgw9gXmuIHDqXBF6JvZkQb6OkQWVGmG8tQ60q1NLLhY8z18uxS5tv1+3UnsrOX7BmChGvXd6D8ISDx2qJDESMLqAWyu3dvGvwQAHG+GiLFC2gxdnGJ1DR36BeleQz4LrhbXhJeqPQQjjz9/RE7zi56+QKEJEfmsSN1PPU74wuVwiBYrpzSU21k6pvLTGxtohJVnqdztSUdgCVwgA1clyr2eQ1qhl7ByQiYz9aur4EIWThUwra3ZP/+Pmq+1PNOIIgiAIgiAIgiAIgiAw4R/KfzlBirhIxwAAAABJRU5ErkJggg==;" vertex="1" parent="lDHJfgaJlsZgmha4-692-188">
          <mxGeometry width="70" height="70" as="geometry" />
        </mxCell>
        <mxCell id="lDHJfgaJlsZgmha4-692-185" value="&lt;font style=&quot;font-size: 20px;&quot;&gt;&lt;span style=&quot;font-size: 20px;&quot;&gt;Flink&lt;/span&gt;&lt;/font&gt;" style="text;html=1;strokeColor=none;fillColor=none;align=center;verticalAlign=middle;whiteSpace=wrap;rounded=0;fontColor=#FF7E08;fontSize=20;fontStyle=1" vertex="1" parent="lDHJfgaJlsZgmha4-692-188">
          <mxGeometry x="5" y="70" width="60" height="30" as="geometry" />
        </mxCell>
        <mxCell id="lDHJfgaJlsZgmha4-692-189" value="" style="group" vertex="1" connectable="0" parent="1">
          <mxGeometry x="1446" y="2900" width="70" height="100" as="geometry" />
        </mxCell>
        <mxCell id="lDHJfgaJlsZgmha4-692-190" value="" style="shape=image;verticalLabelPosition=bottom;labelBackgroundColor=default;verticalAlign=top;aspect=fixed;imageAspect=0;image=data:image/png,iVBORw0KGgoAAAANSUhEUgAAAMgAAADICAMAAACahl6sAAAAG1BMVEX/////agD/gyX/9/L/v5D/1bb/6Nf/qWr/l0prFfVXAAAF7ElEQVR4nO2d6WLkIAiAO17x/Z94J5m2wQM8kih2+f52DwmiXNKvL0EQBEEQBEEQBEEQBEGYjXZm8+r1RvnNOj17Pb0441+AzbjZK+rCbeoVobYFlWJjKT6i2NnrasRtWTn2DbaUUrTH5HhLspClaFQfa+mE0schyewFVqLzdg5YxOJtcuzGqDXMJNxYfr8GXSTcEpvLBSv+2UU6OJCXUAlcsAUHVHCUGf4nl/PYcqFO/CyVaOdsHWC1Jv5HPP6zMTi7u+N1UIYAzuUJ5q5N6sZWka5Vn/+QHy1GxhmvJOfonipRY8XQtuBtNAoCjuaxcpDOX4HswTRHEDyoqCF76U0RxPVax7cgXLaW6zePD5mrwpxiDpPjkn0c+NQNOb/NuOM3lkMpXwXYj8neAhfisJvdRWJ4Y52uwZySxDcicFGGZVN0aOimPkvoUIdKnxYyLgNhoBht0QP8q4EkgX9/73JRgvRB49fT8BtsPxFJGFhlzoFngOkD1fqfhsfEblxv79kHe3WUqWt0e9QQJx8i777n2/SCR3lVlNIow+SAO6snTVC6S8dFh/Cc7Pl6pCRqYOKBiLtj9NuQrU2WRkgyMs0ITITaWdr+ho9qC4WBF3ykj4fXHgAWQWwDE6cU4Q913nkeXH0DgqB/Jv3mKlSKTZUy0jwOKgTJRl1RdLtvvd8/pvyEWmhZEORcSs64vT59MKekWxYEO5VyebfduX9ytQRFQfBSDq8aTkkQorY2zK+toiQIVVt7UCVVEWoAvEcyOIPL8VTl40rOs49nonFdLkzeziOCTJDjGSd9ghzPlHAmyCGCkIw+snYesZEZxv7M8Xu5NtDMUxX0tx/dzqlHlfuxp/TMqqfhVGN+wxO+Fq8uk/OL5zc84f2yao8DtRHk++IqYaWQikof5v+yiqtsTaNFPtad0yqDUNfDk8vADc/20MD9T+yUtAVTpZnTiQSlEfoI0kGq0bMSI/zOxTyt27u4Xkfpmll/tQ1suOJO0J/GOmZPQ+L0IavVaWvq2JIOM15naXcDHC/vT1MZKBpe3l9/h8+0xtw83fuKlz76kw/M9NEtCCsf9qAnYlcbPzk6siiqoTVrIK1JbG94uX6A6pvdGG4ek/BfMbHUfCPv2ONjS9yuyzZAKxDLq6aSOOjiVU+vJ72PxjZe3UU2rGEVedWBTAtYTieon7OYJHjP6GIWT8T9a6mECmoGqqT2jS0OIcc4laD9tzcx6qnU491Bo8z98su1EqPSRo83PowS5Gk5RCOt/Bkbufb+uYJhTsrT3UEDRze4+sQWAiXIUtE7odRx79fugPAOllIIUb9bYpYRAIus2JWDiuQbzdaTI3+Kcysz1qGjt3rcWpoacDBEU4tO8zzQP4/SFeO6VgPzRNCuFta1D7dVDvjaOR4+8iwl9iUfZrxGpelPoqgt80q9jzvKdZeikTueCTt7z1vdqzG7v3btWfCw4dqhfVGOS7K43Hv2XrXckkXp+5L5IHvrPBL7OwED2puT7575cFsWpbVd/PaayttrbbgQSVEa9jfdE9r5VqbeQ3H7vFKzoUe2qm0bL/W2Dimq6HT00knlCVYaJzgyJHOYMFvZWOKX58pPm+a04+KY8GcRRVthNF/rg86MaDlEobXCauLZ76IwsyWMhdUMuhNsh732XyiSu6aZTQWEK8NEOR7yGGtdMMCR2ZzG4P/PuH9AGNU1OXNW55olHxrnIWeZTksbd3QekNNlJ+a/cVvJQ8/7HT7cO6BpWgw9gXmuIHDqXBF6JvZkQb6OkQWVGmG8tQ60q1NLLhY8z18uxS5tv1+3UnsrOX7BmChGvXd6D8ISDx2qJDESMLqAWyu3dvGvwQAHG+GiLFC2gxdnGJ1DR36BeleQz4LrhbXhJeqPQQjjz9/RE7zi56+QKEJEfmsSN1PPU74wuVwiBYrpzSU21k6pvLTGxtohJVnqdztSUdgCVwgA1clyr2eQ1qhl7ByQiYz9aur4EIWThUwra3ZP/+Pmq+1PNOIIgiAIgiAIgiAIgiAw4R/KfzlBirhIxwAAAABJRU5ErkJggg==;" vertex="1" parent="lDHJfgaJlsZgmha4-692-189">
          <mxGeometry width="70" height="70" as="geometry" />
        </mxCell>
        <mxCell id="lDHJfgaJlsZgmha4-692-191" value="&lt;font style=&quot;font-size: 20px;&quot;&gt;&lt;span style=&quot;font-size: 20px;&quot;&gt;Flink&lt;/span&gt;&lt;/font&gt;" style="text;html=1;strokeColor=none;fillColor=none;align=center;verticalAlign=middle;whiteSpace=wrap;rounded=0;fontColor=#FF7E08;fontSize=20;fontStyle=1" vertex="1" parent="lDHJfgaJlsZgmha4-692-189">
          <mxGeometry x="5" y="70" width="60" height="30" as="geometry" />
        </mxCell>
        <mxCell id="lDHJfgaJlsZgmha4-692-192" value="" style="group" vertex="1" connectable="0" parent="1">
          <mxGeometry x="1001" y="2900" width="70" height="100" as="geometry" />
        </mxCell>
        <mxCell id="lDHJfgaJlsZgmha4-692-193" value="" style="shape=image;verticalLabelPosition=bottom;labelBackgroundColor=default;verticalAlign=top;aspect=fixed;imageAspect=0;image=data:image/png,iVBORw0KGgoAAAANSUhEUgAAAMgAAADICAMAAACahl6sAAAAG1BMVEX/////agD/gyX/9/L/v5D/1bb/6Nf/qWr/l0prFfVXAAAF7ElEQVR4nO2d6WLkIAiAO17x/Z94J5m2wQM8kih2+f52DwmiXNKvL0EQBEEQBEEQBEEQBEGYjXZm8+r1RvnNOj17Pb0441+AzbjZK+rCbeoVobYFlWJjKT6i2NnrasRtWTn2DbaUUrTH5HhLspClaFQfa+mE0schyewFVqLzdg5YxOJtcuzGqDXMJNxYfr8GXSTcEpvLBSv+2UU6OJCXUAlcsAUHVHCUGf4nl/PYcqFO/CyVaOdsHWC1Jv5HPP6zMTi7u+N1UIYAzuUJ5q5N6sZWka5Vn/+QHy1GxhmvJOfonipRY8XQtuBtNAoCjuaxcpDOX4HswTRHEDyoqCF76U0RxPVax7cgXLaW6zePD5mrwpxiDpPjkn0c+NQNOb/NuOM3lkMpXwXYj8neAhfisJvdRWJ4Y52uwZySxDcicFGGZVN0aOimPkvoUIdKnxYyLgNhoBht0QP8q4EkgX9/73JRgvRB49fT8BtsPxFJGFhlzoFngOkD1fqfhsfEblxv79kHe3WUqWt0e9QQJx8i777n2/SCR3lVlNIow+SAO6snTVC6S8dFh/Cc7Pl6pCRqYOKBiLtj9NuQrU2WRkgyMs0ITITaWdr+ho9qC4WBF3ykj4fXHgAWQWwDE6cU4Q913nkeXH0DgqB/Jv3mKlSKTZUy0jwOKgTJRl1RdLtvvd8/pvyEWmhZEORcSs64vT59MKekWxYEO5VyebfduX9ytQRFQfBSDq8aTkkQorY2zK+toiQIVVt7UCVVEWoAvEcyOIPL8VTl40rOs49nonFdLkzeziOCTJDjGSd9ghzPlHAmyCGCkIw+snYesZEZxv7M8Xu5NtDMUxX0tx/dzqlHlfuxp/TMqqfhVGN+wxO+Fq8uk/OL5zc84f2yao8DtRHk++IqYaWQikof5v+yiqtsTaNFPtad0yqDUNfDk8vADc/20MD9T+yUtAVTpZnTiQSlEfoI0kGq0bMSI/zOxTyt27u4Xkfpmll/tQ1suOJO0J/GOmZPQ+L0IavVaWvq2JIOM15naXcDHC/vT1MZKBpe3l9/h8+0xtw83fuKlz76kw/M9NEtCCsf9qAnYlcbPzk6siiqoTVrIK1JbG94uX6A6pvdGG4ek/BfMbHUfCPv2ONjS9yuyzZAKxDLq6aSOOjiVU+vJ72PxjZe3UU2rGEVedWBTAtYTieon7OYJHjP6GIWT8T9a6mECmoGqqT2jS0OIcc4laD9tzcx6qnU491Bo8z98su1EqPSRo83PowS5Gk5RCOt/Bkbufb+uYJhTsrT3UEDRze4+sQWAiXIUtE7odRx79fugPAOllIIUb9bYpYRAIus2JWDiuQbzdaTI3+Kcysz1qGjt3rcWpoacDBEU4tO8zzQP4/SFeO6VgPzRNCuFta1D7dVDvjaOR4+8iwl9iUfZrxGpelPoqgt80q9jzvKdZeikTueCTt7z1vdqzG7v3btWfCw4dqhfVGOS7K43Hv2XrXckkXp+5L5IHvrPBL7OwED2puT7575cFsWpbVd/PaayttrbbgQSVEa9jfdE9r5VqbeQ3H7vFKzoUe2qm0bL/W2Dimq6HT00knlCVYaJzgyJHOYMFvZWOKX58pPm+a04+KY8GcRRVthNF/rg86MaDlEobXCauLZ76IwsyWMhdUMuhNsh732XyiSu6aZTQWEK8NEOR7yGGtdMMCR2ZzG4P/PuH9AGNU1OXNW55olHxrnIWeZTksbd3QekNNlJ+a/cVvJQ8/7HT7cO6BpWgw9gXmuIHDqXBF6JvZkQb6OkQWVGmG8tQ60q1NLLhY8z18uxS5tv1+3UnsrOX7BmChGvXd6D8ISDx2qJDESMLqAWyu3dvGvwQAHG+GiLFC2gxdnGJ1DR36BeleQz4LrhbXhJeqPQQjjz9/RE7zi56+QKEJEfmsSN1PPU74wuVwiBYrpzSU21k6pvLTGxtohJVnqdztSUdgCVwgA1clyr2eQ1qhl7ByQiYz9aur4EIWThUwra3ZP/+Pmq+1PNOIIgiAIgiAIgiAIgiAw4R/KfzlBirhIxwAAAABJRU5ErkJggg==;" vertex="1" parent="lDHJfgaJlsZgmha4-692-192">
          <mxGeometry width="70" height="70" as="geometry" />
        </mxCell>
        <mxCell id="lDHJfgaJlsZgmha4-692-194" value="&lt;font style=&quot;font-size: 20px;&quot;&gt;&lt;span style=&quot;font-size: 20px;&quot;&gt;Flink&lt;/span&gt;&lt;/font&gt;" style="text;html=1;strokeColor=none;fillColor=none;align=center;verticalAlign=middle;whiteSpace=wrap;rounded=0;fontColor=#FF7E08;fontSize=20;fontStyle=1" vertex="1" parent="lDHJfgaJlsZgmha4-692-192">
          <mxGeometry x="5" y="70" width="60" height="30" as="geometry" />
        </mxCell>
        <mxCell id="lDHJfgaJlsZgmha4-692-217" style="edgeStyle=orthogonalEdgeStyle;rounded=0;orthogonalLoop=1;jettySize=auto;html=1;exitX=1;exitY=0.5;exitDx=0;exitDy=0;entryX=-0.008;entryY=0.14;entryDx=0;entryDy=0;entryPerimeter=0;" edge="1" parent="1" source="lDHJfgaJlsZgmha4-692-195" target="lDHJfgaJlsZgmha4-692-102">
          <mxGeometry relative="1" as="geometry" />
        </mxCell>
        <mxCell id="lDHJfgaJlsZgmha4-692-195" value="&lt;font style=&quot;font-size: 24px;&quot; color=&quot;#ffffff&quot;&gt;&lt;br style=&quot;font-size: 24px;&quot;&gt;Datahub&lt;br style=&quot;font-size: 24px;&quot;&gt;&lt;br style=&quot;font-size: 24px;&quot;&gt;&lt;/font&gt;" style="rounded=1;whiteSpace=wrap;html=1;strokeColor=none;fillColor=#FF7E08;fontStyle=1;fontSize=24;" vertex="1" parent="1">
          <mxGeometry x="830" y="2830" width="117.25" height="80" as="geometry" />
        </mxCell>
        <mxCell id="lDHJfgaJlsZgmha4-692-215" style="edgeStyle=orthogonalEdgeStyle;rounded=0;orthogonalLoop=1;jettySize=auto;html=1;exitX=1;exitY=0.5;exitDx=0;exitDy=0;" edge="1" parent="1" source="lDHJfgaJlsZgmha4-692-210" target="lDHJfgaJlsZgmha4-692-102">
          <mxGeometry relative="1" as="geometry" />
        </mxCell>
        <mxCell id="lDHJfgaJlsZgmha4-692-210" value="&lt;font style=&quot;font-size: 24px;&quot; color=&quot;#ffffff&quot;&gt;&lt;br style=&quot;font-size: 24px;&quot;&gt;MQ&lt;br style=&quot;font-size: 24px;&quot;&gt;&lt;br style=&quot;font-size: 24px;&quot;&gt;&lt;/font&gt;" style="rounded=1;whiteSpace=wrap;html=1;strokeColor=none;fillColor=#cce5ff;fontStyle=1;fontSize=24;" vertex="1" parent="1">
          <mxGeometry x="830.75" y="2920" width="117.25" height="110" as="geometry" />
        </mxCell>
        <mxCell id="lDHJfgaJlsZgmha4-692-211" value="Data Streaming" style="shape=cylinder3;whiteSpace=wrap;html=1;boundedLbl=1;backgroundOutline=1;size=15;direction=south;fontSize=16;fontStyle=1" vertex="1" parent="1">
          <mxGeometry x="32" y="3380" width="404" height="60" as="geometry" />
        </mxCell>
        <mxCell id="lDHJfgaJlsZgmha4-692-216" style="edgeStyle=orthogonalEdgeStyle;rounded=0;orthogonalLoop=1;jettySize=auto;html=1;exitX=1;exitY=0.5;exitDx=0;exitDy=0;entryX=-0.008;entryY=0.862;entryDx=0;entryDy=0;entryPerimeter=0;" edge="1" parent="1" source="lDHJfgaJlsZgmha4-692-214" target="lDHJfgaJlsZgmha4-692-102">
          <mxGeometry relative="1" as="geometry" />
        </mxCell>
        <mxCell id="lDHJfgaJlsZgmha4-692-214" value="&lt;font style=&quot;font-size: 24px;&quot; color=&quot;#ffffff&quot;&gt;Mysql&lt;br style=&quot;font-size: 24px;&quot;&gt;&lt;/font&gt;" style="rounded=1;whiteSpace=wrap;html=1;strokeColor=none;fillColor=#cce5ff;fontStyle=1;fontSize=24;" vertex="1" parent="1">
          <mxGeometry x="830" y="3040" width="117.25" height="80" as="geometry" />
        </mxCell>
        <mxCell id="lDHJfgaJlsZgmha4-692-218" value="&lt;font style=&quot;font-size: 15px;&quot; color=&quot;#ffffff&quot;&gt;MaxCompute&lt;br&gt;大数据离线计算&lt;/font&gt;" style="rounded=1;whiteSpace=wrap;html=1;strokeColor=none;fillColor=#FF7E08;fontStyle=1" vertex="1" parent="1">
          <mxGeometry x="1172" y="3260" width="394" height="60" as="geometry" />
        </mxCell>
        <mxCell id="lDHJfgaJlsZgmha4-692-219" value="" style="shape=flexArrow;endArrow=classic;html=1;rounded=0;fillColor=#000000;" edge="1" parent="1">
          <mxGeometry width="50" height="50" relative="1" as="geometry">
            <mxPoint x="1321" y="3240" as="sourcePoint" />
            <mxPoint x="1321" y="3170" as="targetPoint" />
          </mxGeometry>
        </mxCell>
        <mxCell id="lDHJfgaJlsZgmha4-692-220" value="数据修正&lt;br&gt;加速查询" style="text;html=1;align=center;verticalAlign=middle;resizable=0;points=[];autosize=1;strokeColor=none;fillColor=none;fontSize=25;fontStyle=1" vertex="1" parent="1">
          <mxGeometry x="1336" y="3170" width="120" height="70" as="geometry" />
        </mxCell>
        <mxCell id="lDHJfgaJlsZgmha4-692-223" value="实时数仓" style="text;html=1;strokeColor=none;fillColor=none;align=center;verticalAlign=middle;whiteSpace=wrap;rounded=0;fontSize=20;" vertex="1" parent="1">
          <mxGeometry x="1061.5" y="2760" width="99" height="50" as="geometry" />
        </mxCell>
        <mxCell id="lDHJfgaJlsZgmha4-692-225" value="离线数仓" style="text;html=1;strokeColor=none;fillColor=none;align=center;verticalAlign=middle;whiteSpace=wrap;rounded=0;fontSize=20;" vertex="1" parent="1">
          <mxGeometry x="1055.5" y="3230" width="99" height="50" as="geometry" />
        </mxCell>
      </root>
    </mxGraphModel>
  </diagram>
</mxfile>
